<svg width="39" height="34" viewBox="0 0 39 34" fill="none" xmlns="http://www.w3.org/2000/svg">
<path d="M12.4219 18.2476C12.4217 18.4968 12.5136 18.7403 12.6857 18.9467C12.8578 19.153 13.1021 19.3127 13.3871 19.4051L15.7503 20.173C16.0813 20.2811 16.3556 20.4794 16.5262 20.7338C16.6968 20.9882 16.7531 21.2828 16.6854 21.5672C16.6177 21.8516 16.4303 22.108 16.1552 22.2925C15.8801 22.4769 15.5346 22.5779 15.1778 22.5781H12.8512M14.5687 23.9727V22.5781M14.5687 12.8164C14.5687 14.6657 15.4734 16.4392 17.0839 17.7468C18.6943 19.0544 20.8786 19.7891 23.1561 19.7891C25.4336 19.7891 27.6178 19.0544 29.2282 17.7468C30.8387 16.4392 31.7434 14.6657 31.7434 12.8164C31.7434 10.9671 30.8387 9.19362 29.2282 7.88599C27.6178 6.57837 25.4336 5.84375 23.1561 5.84375C20.8786 5.84375 18.6943 6.57837 17.0839 7.88599C15.4734 9.19362 14.5687 10.9671 14.5687 12.8164Z" stroke="#737791" stroke-opacity="0.91" stroke-width="2" stroke-linecap="round" stroke-linejoin="round"/>
<path d="M11.1688 13.39C9.88035 13.8399 8.74722 14.5391 7.86842 15.4266C6.98963 16.3141 6.39193 17.3629 6.12757 18.4813C5.8632 19.5997 5.94022 20.7536 6.35189 21.8422C6.76356 22.9309 7.49735 23.9211 8.48912 24.7263C9.48089 25.5315 10.7005 26.1272 12.0412 26.4613C13.382 26.7955 14.8032 26.8579 16.1805 26.6431C17.5578 26.4284 18.8494 25.943 19.9424 25.2293C21.0353 24.5157 21.8964 23.5955 22.4503 22.5493M24.8731 10.0273H22.5453C22.1886 10.0275 21.843 10.1285 21.568 10.313C21.2929 10.4974 21.1054 10.7538 21.0377 11.0382C20.97 11.3226 21.0263 11.6173 21.1969 11.8717C21.3676 12.1261 21.6419 12.3243 21.9728 12.4324L24.3361 13.2004C24.667 13.3085 24.9413 13.5067 25.1119 13.7611C25.2826 14.0155 25.3388 14.3102 25.2711 14.5946C25.2035 14.879 25.016 15.1354 24.7409 15.3198C24.4659 15.5043 24.1203 15.6053 23.7636 15.6055H21.4381M23.1556 10.0273V8.63281M23.1556 17V15.6055" stroke="#737791" stroke-opacity="0.91" stroke-width="2" stroke-linecap="round" stroke-linejoin="round"/>
</svg>
