<svg width="35" height="38" viewBox="0 0 35 38" fill="none" xmlns="http://www.w3.org/2000/svg">
<g filter="url(#filter0_d_843_4096)">
<mask id="mask0_843_4096" style="mask-type:luminance" maskUnits="userSpaceOnUse" x="1" y="0" width="33" height="32">
<rect x="1.33301" width="32" height="32" fill="white"/>
</mask>
<g mask="url(#mask0_843_4096)">
<path d="M15.0032 7.84619L15.3744 13.3661L15.5587 16.1405C15.5607 16.4259 15.6053 16.7093 15.6916 16.9817C15.9141 17.5105 16.4496 17.8465 17.0321 17.8231L25.9084 17.2424C26.2928 17.2361 26.664 17.3799 26.9403 17.6421C27.1705 17.8607 27.3192 18.1465 27.3661 18.454L27.3819 18.6407C27.0145 23.7269 23.2789 27.9693 18.2032 29.0644C13.1274 30.1595 7.92248 27.8461 5.41428 23.3803C4.69118 22.0828 4.23953 20.6568 4.08584 19.1857C4.02164 18.7503 3.99337 18.3104 4.0013 17.8704C3.99337 12.4174 7.87662 7.70302 13.3124 6.5665C13.9667 6.46462 14.608 6.81096 14.8704 7.40778C14.9383 7.54599 14.9831 7.69402 15.0032 7.84619Z" fill="#737791"/>
<path opacity="0.4" d="M30.6667 13.0834L30.6574 13.1268L30.6305 13.19L30.6342 13.3635C30.6203 13.5933 30.5315 13.8143 30.3787 13.993C30.2194 14.179 30.0018 14.3057 29.7622 14.3549L29.6161 14.3749L19.375 15.0385C19.0343 15.0721 18.6951 14.9622 18.4419 14.7363C18.2307 14.5479 18.0958 14.2938 18.0577 14.0199L17.3703 3.79374C17.3583 3.75916 17.3583 3.72168 17.3703 3.6871C17.3797 3.40522 17.5038 3.13878 17.7149 2.9473C17.9258 2.75582 18.2063 2.65526 18.4934 2.66808C24.5733 2.82276 29.6831 7.19471 30.6667 13.0834Z" fill="#737791"/>
</g>
</g>
<defs>
<filter id="filter0_d_843_4096" x="0" y="2.66699" width="34.667" height="34.667" filterUnits="userSpaceOnUse" color-interpolation-filters="sRGB">
<feFlood flood-opacity="0" result="BackgroundImageFix"/>
<feColorMatrix in="SourceAlpha" type="matrix" values="0 0 0 0 0 0 0 0 0 0 0 0 0 0 0 0 0 0 127 0" result="hardAlpha"/>
<feOffset dy="4"/>
<feGaussianBlur stdDeviation="2"/>
<feComposite in2="hardAlpha" operator="out"/>
<feColorMatrix type="matrix" values="0 0 0 0 0 0 0 0 0 0 0 0 0 0 0 0 0 0 0.25 0"/>
<feBlend mode="normal" in2="BackgroundImageFix" result="effect1_dropShadow_843_4096"/>
<feBlend mode="normal" in="SourceGraphic" in2="effect1_dropShadow_843_4096" result="shape"/>
</filter>
</defs>
</svg>
