<svg width="32" height="32" viewBox="0 0 32 32" fill="none" xmlns="http://www.w3.org/2000/svg">
<path d="M25.3333 7.99967H22.6667C22.6667 4.26634 19.7333 1.33301 16 1.33301C12.2667 1.33301 9.33333 4.26634 9.33333 7.99967H6.66667C5.2 7.99967 4 9.19967 4 10.6663V26.6663C4 28.133 5.2 29.333 6.66667 29.333H25.3333C26.8 29.333 28 28.133 28 26.6663V10.6663C28 9.19967 26.8 7.99967 25.3333 7.99967ZM16 3.99967C18.2667 3.99967 20 5.73301 20 7.99967H12C12 5.73301 13.7333 3.99967 16 3.99967ZM25.3333 26.6663H6.66667V10.6663H25.3333V26.6663ZM16 15.9997C13.7333 15.9997 12 14.2663 12 11.9997H9.33333C9.33333 15.733 12.2667 18.6663 16 18.6663C19.7333 18.6663 22.6667 15.733 22.6667 11.9997H20C20 14.2663 18.2667 15.9997 16 15.9997Z" fill="#737791"/>
</svg>
