<svg width="41" height="32" viewBox="0 0 41 32" fill="none" xmlns="http://www.w3.org/2000/svg">
<g clip-path="url(#clip0_843_4173)">
<path d="M22.1122 13.0794L10.209 7.35254" stroke="#737791" stroke-width="2" stroke-linecap="round" stroke-linejoin="round"/>
<path d="M28.0643 20.362V11.5344C28.0638 11.1474 27.9413 10.7673 27.7092 10.4323C27.4771 10.0972 27.1434 9.81898 26.7417 9.62548L17.4836 5.21168C17.0815 5.01799 16.6254 4.91602 16.161 4.91602C15.6967 4.91602 15.2406 5.01799 14.8385 5.21168L5.58039 9.62548C5.17868 9.81898 4.84501 10.0972 4.61287 10.4323C4.38074 10.7673 4.25829 11.1474 4.25781 11.5344V20.362C4.25829 20.749 4.38074 21.1291 4.61287 21.4642C4.84501 21.7993 5.17868 22.0775 5.58039 22.271L14.8385 26.6848C15.2406 26.8785 15.6967 26.9805 16.161 26.9805C16.6254 26.9805 17.0815 26.8785 17.4836 26.6848L26.7417 22.271C27.1434 22.0775 27.4771 21.7993 27.7092 21.4642C27.9413 21.1291 28.0638 20.749 28.0643 20.362Z" stroke="#737791" stroke-width="2" stroke-linecap="round" stroke-linejoin="round"/>
<path d="M4.61523 10.3867L16.1614 15.9591L27.7075 10.3867" stroke="#737791" stroke-width="2" stroke-linecap="round" stroke-linejoin="round"/>
<path d="M16.1611 27.071V15.9482" stroke="#737791" stroke-width="2" stroke-linecap="round" stroke-linejoin="round"/>
</g>
<defs>
<clipPath id="clip0_843_4173">
<rect width="40.2353" height="32" fill="white"/>
</clipPath>
</defs>
</svg>
