<svg width="31" height="32" viewBox="0 0 31 32" fill="none" xmlns="http://www.w3.org/2000/svg">
<path fill-rule="evenodd" clip-rule="evenodd" d="M20.9488 22.2009L25.338 16.8775C25.5477 16.629 25.6549 16.3152 25.655 15.9998C25.6552 15.784 25.6051 15.5674 25.5035 15.3704C25.4583 15.2826 25.4031 15.1992 25.338 15.1221L20.9488 9.7987C20.4877 9.23957 19.678 9.17478 19.14 9.65398C18.6021 10.1332 18.5398 10.9749 19.0008 11.534L21.5835 14.6664L11.6491 14.6664C10.9407 14.6664 10.3664 15.2633 10.3664 15.9997C10.3664 16.7361 10.9407 17.333 11.6491 17.333L21.5836 17.333L19.0008 20.4655C18.5398 21.0247 18.6021 21.8664 19.14 22.3456C19.678 22.8248 20.4877 22.76 20.9488 22.2009ZM12.8276 7.99968C13.536 7.99968 14.1103 8.59663 14.1103 9.33301L14.1103 11.333C14.1103 12.0694 14.6846 12.6663 15.3931 12.6663C16.1015 12.6663 16.6758 12.0694 16.6758 11.333L16.6758 9.33301C16.6758 7.12387 14.9529 5.33301 12.8276 5.33301L8.97935 5.33301C6.85402 5.33301 5.13111 7.12387 5.13111 9.33301L5.13111 22.6663C5.13111 24.8755 6.85402 26.6663 8.97935 26.6663L12.8276 26.6663C14.9529 26.6663 16.6758 24.8755 16.6758 22.6663L16.6758 20.6663C16.6758 19.93 16.1015 19.333 15.3931 19.333C14.6846 19.333 14.1103 19.93 14.1103 20.6663L14.1103 22.6663C14.1103 23.4027 13.536 23.9997 12.8276 23.9997L8.97935 23.9997C8.27091 23.9997 7.6966 23.4027 7.6966 22.6663L7.6966 9.33301C7.6966 8.59663 8.27091 7.99968 8.97935 7.99968L12.8276 7.99968Z" fill="#737791"/>
</svg>
