<svg width="47" height="47" viewBox="0 0 47 47" fill="none" xmlns="http://www.w3.org/2000/svg">
<path d="M20 21.3386H23.3333C23.687 21.3386 24.0261 21.1982 24.2762 20.9481C24.5262 20.6981 24.6667 20.3589 24.6667 20.0053C24.6667 19.6517 24.5262 19.3125 24.2762 19.0625C24.0261 18.8124 23.687 18.672 23.3333 18.672H22V18.0053C22 17.6517 21.8595 17.3125 21.6095 17.0625C21.3594 16.8124 21.0203 16.672 20.6667 16.672C20.3131 16.672 19.9739 16.8124 19.7239 17.0625C19.4738 17.3125 19.3333 17.6517 19.3333 18.0053V18.7386C18.5232 18.9031 17.8032 19.3628 17.3129 20.0283C16.8226 20.6939 16.5971 21.5178 16.6802 22.3403C16.7633 23.1627 17.149 23.925 17.7625 24.4791C18.3759 25.0331 19.1734 25.3395 20 25.3386H21.3333C21.5102 25.3386 21.6797 25.4089 21.8047 25.5339C21.9298 25.6589 22 25.8285 22 26.0053C22 26.1821 21.9298 26.3517 21.8047 26.4767C21.6797 26.6017 21.5102 26.672 21.3333 26.672H18C17.6464 26.672 17.3073 26.8124 17.0572 27.0625C16.8072 27.3125 16.6667 27.6517 16.6667 28.0053C16.6667 28.3589 16.8072 28.6981 17.0572 28.9481C17.3073 29.1982 17.6464 29.3386 18 29.3386H19.3333V30.0053C19.3333 30.3589 19.4738 30.6981 19.7239 30.9481C19.9739 31.1982 20.3131 31.3386 20.6667 31.3386C21.0203 31.3386 21.3594 31.1982 21.6095 30.9481C21.8595 30.6981 22 30.3589 22 30.0053V29.272C22.8101 29.1075 23.5302 28.6478 24.0205 27.9823C24.5107 27.3167 24.7362 26.4928 24.6532 25.6703C24.5701 24.8479 24.1844 24.0856 23.5709 23.5315C22.9574 22.9775 22.16 22.6711 21.3333 22.672H20C19.8232 22.672 19.6536 22.6017 19.5286 22.4767C19.4036 22.3517 19.3333 22.1821 19.3333 22.0053C19.3333 21.8285 19.4036 21.6589 19.5286 21.5339C19.6536 21.4089 19.8232 21.3386 20 21.3386ZM35.3333 23.3386H31.3333V11.3386C31.3343 11.1037 31.2731 10.8727 31.156 10.669C31.039 10.4653 30.8701 10.2961 30.6667 10.1786C30.464 10.0616 30.2341 10 30 10C29.766 10 29.536 10.0616 29.3333 10.1786L25.3333 12.472L21.3333 10.1786C21.1307 10.0616 20.9007 10 20.6667 10C20.4326 10 20.2027 10.0616 20 10.1786L16 12.472L12 10.1786C11.7973 10.0616 11.5674 10 11.3333 10C11.0993 10 10.8694 10.0616 10.6667 10.1786C10.4632 10.2961 10.2944 10.4653 10.1773 10.669C10.0602 10.8727 9.99908 11.1037 10 11.3386V32.672C10 33.7328 10.4214 34.7502 11.1716 35.5004C11.9217 36.2505 12.9391 36.672 14 36.672H32.6667C33.7275 36.672 34.745 36.2505 35.4951 35.5004C36.2453 34.7502 36.6667 33.7328 36.6667 32.672V24.672C36.6667 24.3183 36.5262 23.9792 36.2762 23.7292C36.0261 23.4791 35.687 23.3386 35.3333 23.3386ZM14 34.0053C13.6464 34.0053 13.3073 33.8648 13.0572 33.6148C12.8072 33.3647 12.6667 33.0256 12.6667 32.672V13.6453L15.3333 15.1653C15.5391 15.2728 15.7678 15.3289 16 15.3289C16.2322 15.3289 16.4609 15.2728 16.6667 15.1653L20.6667 12.872L24.6667 15.1653C24.8725 15.2728 25.1012 15.3289 25.3333 15.3289C25.5655 15.3289 25.7942 15.2728 26 15.1653L28.6667 13.6453V32.672C28.6703 33.1268 28.7514 33.5777 28.9067 34.0053H14ZM34 32.672C34 33.0256 33.8595 33.3647 33.6095 33.6148C33.3594 33.8648 33.0203 34.0053 32.6667 34.0053C32.3131 34.0053 31.9739 33.8648 31.7239 33.6148C31.4738 33.3647 31.3333 33.0256 31.3333 32.672V26.0053H34V32.672Z" fill="#757575"/>
</svg>
