<svg width="16" height="16" viewBox="0 0 16 16" fill="none" xmlns="http://www.w3.org/2000/svg">
<path fill-rule="evenodd" clip-rule="evenodd" d="M11.0999 5.11293L8.43826 2.83175C8.31399 2.72281 8.15711 2.66707 7.9994 2.66699C7.89149 2.66694 7.7832 2.69294 7.6847 2.74577C7.64081 2.76926 7.59911 2.79794 7.56055 2.83175L4.89886 5.11293C4.6193 5.35253 4.5869 5.7734 4.8265 6.05296C5.0661 6.33253 5.48696 6.36492 5.76653 6.12532L7.33269 4.78305V9.94614C7.33269 10.3143 7.63117 10.6128 7.99936 10.6128C8.36755 10.6128 8.66602 10.3143 8.66602 9.94614L8.66603 4.78297L10.2323 6.12532C10.5118 6.36492 10.9327 6.33253 11.1723 6.05296C11.4119 5.7734 11.3795 5.35253 11.0999 5.11293ZM3.99935 9.33366C3.99935 8.96547 4.29783 8.66699 4.66602 8.66699H5.66602C6.03421 8.66699 6.33268 8.36852 6.33268 8.00033C6.33268 7.63214 6.03421 7.33366 5.66602 7.33366H4.66602C3.56145 7.33366 2.66602 8.22909 2.66602 9.33366V11.3337C2.66602 12.4382 3.56145 13.3337 4.66602 13.3337H11.3327C12.4373 13.3337 13.3327 12.4382 13.3327 11.3337V9.33366C13.3327 8.22909 12.4373 7.33366 11.3327 7.33366H10.3327C9.96449 7.33366 9.66602 7.63214 9.66602 8.00033C9.66602 8.36852 9.96449 8.66699 10.3327 8.66699H11.3327C11.7009 8.66699 11.9993 8.96547 11.9993 9.33366V11.3337C11.9993 11.7018 11.7009 12.0003 11.3327 12.0003H4.66602C4.29783 12.0003 3.99935 11.7018 3.99935 11.3337V9.33366Z" fill="#0F3659"/>
</svg>
