<svg width="31" height="32" viewBox="0 0 31 32" fill="none" xmlns="http://www.w3.org/2000/svg">
<path d="M15.3931 10.6665C16.7539 10.6665 18.059 11.2284 19.0213 12.2286C19.9835 13.2288 20.5241 14.5853 20.5241 15.9998C20.5241 17.4143 19.9835 18.7709 19.0213 19.7711C18.059 20.7713 16.7539 21.3332 15.3931 21.3332C14.0323 21.3332 12.7272 20.7713 11.7649 19.7711C10.8027 18.7709 10.2621 17.4143 10.2621 15.9998C10.2621 14.5853 10.8027 13.2288 11.7649 12.2286C12.7272 11.2284 14.0323 10.6665 15.3931 10.6665V10.6665ZM15.3931 13.3332C14.7127 13.3332 14.0602 13.6141 13.579 14.1142C13.0979 14.6143 12.8276 15.2926 12.8276 15.9998C12.8276 16.7071 13.0979 17.3854 13.579 17.8855C14.0602 18.3856 14.7127 18.6665 15.3931 18.6665C16.0735 18.6665 16.7261 18.3856 17.2072 17.8855C17.6883 17.3854 17.9586 16.7071 17.9586 15.9998C17.9586 15.2926 17.6883 14.6143 17.2072 14.1142C16.7261 13.6141 16.0735 13.3332 15.3931 13.3332ZM12.8276 29.3332C12.5069 29.3332 12.2375 29.0932 12.1862 28.7732L11.7116 25.2398C10.9035 24.9065 10.2108 24.4532 9.54378 23.9198L6.34974 25.2665C6.06754 25.3732 5.7212 25.2665 5.56727 24.9732L3.00178 20.3598C2.92327 20.2225 2.89559 20.0601 2.92392 19.903C2.95225 19.7459 3.03465 19.605 3.15571 19.5065L5.8623 17.2932L5.77251 15.9998L5.8623 14.6665L3.15571 12.4932C3.03465 12.3947 2.95225 12.2537 2.92392 12.0967C2.89559 11.9396 2.92327 11.7772 3.00178 11.6398L5.56727 7.0265C5.7212 6.73317 6.06754 6.61317 6.34974 6.73317L9.54378 8.0665C10.2108 7.5465 10.9035 7.09317 11.7116 6.75984L12.1862 3.2265C12.2375 2.9065 12.5069 2.6665 12.8276 2.6665H17.9586C18.2793 2.6665 18.5487 2.9065 18.6 3.2265L19.0746 6.75984C19.8827 7.09317 20.5754 7.5465 21.2424 8.0665L24.4365 6.73317C24.7187 6.61317 25.065 6.73317 25.2189 7.0265L27.7844 11.6398C27.9512 11.9332 27.8742 12.2932 27.6305 12.4932L24.9239 14.6665L25.0137 15.9998L24.9239 17.3332L27.6305 19.5065C27.8742 19.7065 27.9512 20.0665 27.7844 20.3598L25.2189 24.9732C25.065 25.2665 24.7187 25.3865 24.4365 25.2665L21.2424 23.9332C20.5754 24.4532 19.8827 24.9065 19.0746 25.2398L18.6 28.7732C18.5487 29.0932 18.2793 29.3332 17.9586 29.3332H12.8276V29.3332ZM14.431 5.33317L13.9564 8.81317C12.4171 9.1465 11.0574 9.99984 10.0697 11.1865L6.97829 9.79984L6.01623 11.5332L8.72282 13.5998C8.20973 15.1554 8.20973 16.8443 8.72282 18.3998L6.0034 20.4798L6.96546 22.2132L10.0825 20.8265C11.0702 21.9998 12.4171 22.8532 13.9436 23.1732L14.4182 26.6665H16.368L16.8426 23.1865C18.3691 22.8532 19.716 21.9998 20.7037 20.8265L23.8207 22.2132L24.7828 20.4798L22.0634 18.4132C22.5765 16.8532 22.5765 15.1598 22.0634 13.5998L24.77 11.5332L23.8079 9.79984L20.7165 11.1865C19.7085 9.9736 18.3413 9.1434 16.8298 8.8265L16.3552 5.33317H14.431V5.33317Z" fill="#737791"/>
</svg>
