<svg width="35" height="32" viewBox="0 0 35 32" fill="none" xmlns="http://www.w3.org/2000/svg">
<path d="M30.8 29.1996C32.3464 29.1996 33.6 27.946 33.6 26.3996C33.6 24.8532 32.3464 23.5996 30.8 23.5996C29.2536 23.5996 28 24.8532 28 26.3996C28 27.946 29.2536 29.1996 30.8 29.1996Z" fill="#737791"/>
<path d="M10.5002 29.1996C12.0466 29.1996 13.3002 27.946 13.3002 26.3996C13.3002 24.8532 12.0466 23.5996 10.5002 23.5996C8.9538 23.5996 7.7002 24.8532 7.7002 26.3996C7.7002 27.946 8.9538 29.1996 10.5002 29.1996Z" fill="#737791"/>
<path d="M32.9 20.0992H11.0397L11.5066 19.3418C11.7068 19.017 11.7656 18.6243 11.6697 18.2547L11.214 16.5005L31.5021 15.4463C32.2714 15.4071 32.9 14.7442 32.9 13.9742V4.69922C32.9 3.92922 32.27 3.29922 31.5 3.29922H7.7833L7.5096 2.24712C7.43163 1.94705 7.25625 1.68135 7.01098 1.4917C6.76572 1.30205 6.46444 1.19917 6.1544 1.19922H1.4C1.0287 1.19922 0.672601 1.34672 0.410051 1.60927C0.1475 1.87182 0 2.22792 0 2.59922C0 2.97052 0.1475 3.32662 0.410051 3.58917C0.672601 3.85172 1.0287 3.99922 1.4 3.99922H5.0722L8.8102 18.3807L7.3402 20.7642C7.20959 20.9763 7.13794 21.2195 7.13265 21.4685C7.12736 21.7176 7.18861 21.9635 7.3101 22.181C7.4314 22.3986 7.60856 22.5798 7.82328 22.7061C8.038 22.8323 8.28251 22.899 8.5316 22.8992H32.9C33.2713 22.8992 33.6274 22.7517 33.8899 22.4892C34.1525 22.2266 34.3 21.8705 34.3 21.4992C34.3 21.1279 34.1525 20.7718 33.8899 20.5093C33.6274 20.2467 33.2713 20.0992 32.9 20.0992Z" fill="#737791"/>
</svg>
