<svg width="45" height="45" viewBox="0 0 45 45" fill="none" xmlns="http://www.w3.org/2000/svg">
<circle cx="22.5" cy="22.5" r="22.5" fill="#BF83FF"/>
<path d="M20.25 23.625C24.5992 23.625 28.1249 26.1435 28.125 29.25V29.5C28.125 30.6046 27.2296 31.5 26.125 31.5H14.375C13.2704 31.5 12.375 30.6046 12.375 29.5V29.25C12.3751 26.1435 15.9008 23.625 20.25 23.625ZM20.25 13.5C22.7352 13.5 24.7499 15.5148 24.75 18C24.75 20.4853 22.7353 22.5 20.25 22.5C17.7647 22.5 15.75 20.4853 15.75 18C15.7501 15.5148 17.7648 13.5 20.25 13.5ZM29.249 15.75C29.8703 15.75 30.3739 16.2538 30.374 16.875V18H31.499C32.1203 18 32.6239 18.5038 32.624 19.125C32.624 19.7463 32.1203 20.25 31.499 20.25H30.374V21.375C30.374 21.9963 29.8703 22.5 29.249 22.5C28.6277 22.5 28.124 21.9963 28.124 21.375V20.25H26.999C26.3777 20.25 25.874 19.7463 25.874 19.125C25.8741 18.5038 26.3778 18 26.999 18H28.124V16.875C28.1241 16.2538 28.6278 15.75 29.249 15.75Z" fill="white"/>
</svg>
