<svg width="45" height="45" viewBox="0 0 45 45" fill="none" xmlns="http://www.w3.org/2000/svg">
<circle cx="22.5" cy="22.5" r="22.5" fill="#FF947A"/>
<path fill-rule="evenodd" clip-rule="evenodd" d="M13.501 15.75C13.501 13.2647 15.5157 11.25 18.001 11.25H24.751V15.75C24.751 18.2353 26.7657 20.25 29.251 20.25H31.501V29.25C31.501 31.7353 29.4863 33.75 27.001 33.75H18.001C15.5157 33.75 13.501 31.7353 13.501 29.25V15.75ZM18.001 21.375C17.3797 21.375 16.876 21.8787 16.876 22.5C16.876 23.1213 17.3797 23.625 18.001 23.625H20.251C20.8723 23.625 21.376 23.1213 21.376 22.5C21.376 21.8787 20.8723 21.375 20.251 21.375H18.001ZM18.001 25.875C17.3797 25.875 16.876 26.3787 16.876 27C16.876 27.6213 17.3797 28.125 18.001 28.125H22.501C23.1223 28.125 23.626 27.6213 23.626 27C23.626 26.3787 23.1223 25.875 22.501 25.875H18.001ZM27.768 13.7236L27.6207 15.9332C27.5754 16.6124 28.1389 17.1759 28.818 17.1306L31.0276 16.9833C31.992 16.919 32.4317 15.7487 31.7483 15.0653L29.686 13.003C29.0025 12.3195 27.8323 12.7592 27.768 13.7236Z" fill="white"/>
</svg>
