<svg width="45" height="45" viewBox="0 0 45 45" fill="none" xmlns="http://www.w3.org/2000/svg">
<circle cx="22.5" cy="22.5" r="22.5" fill="#3CD856"/>
<path fill-rule="evenodd" clip-rule="evenodd" d="M27.7044 14.924L23.9921 15.4543C23.425 15.5353 22.9616 15.8057 22.6307 16.1793L13.9688 24.8411C13.0902 25.7198 13.0901 27.1444 13.9688 28.0231L17.1508 31.2051C18.0295 32.0838 19.4541 32.0838 20.3328 31.2051L28.9947 22.5432C29.3683 22.2124 29.6386 21.749 29.7196 21.1818L30.25 17.4695C30.4621 15.9847 29.1893 14.7118 27.7044 14.924ZM25.1058 20.0682C25.5451 20.5075 26.2574 20.5075 26.6968 20.0682C27.1361 19.6288 27.1361 18.9165 26.6968 18.4772C26.2574 18.0379 25.5451 18.0378 25.1058 18.4772C24.6664 18.9165 24.6665 19.6288 25.1058 20.0682Z" fill="white"/>
</svg>
