<svg width="45" height="45" viewBox="0 0 45 45" fill="none" xmlns="http://www.w3.org/2000/svg">
<circle cx="22.5" cy="22.5" r="22.5" fill="#FA5A7D"/>
<path fill-rule="evenodd" clip-rule="evenodd" d="M14.625 12.375C13.3824 12.375 12.375 13.3824 12.375 14.625V30.375C12.375 31.6176 13.3824 32.625 14.625 32.625H30.375C31.6176 32.625 32.625 31.6176 32.625 30.375V14.625C32.625 13.3824 31.6176 12.375 30.375 12.375H14.625ZM18 23.625C18 23.0037 17.4963 22.5 16.875 22.5C16.2537 22.5 15.75 23.0037 15.75 23.625V28.125C15.75 28.7463 16.2537 29.25 16.875 29.25C17.4963 29.25 18 28.7463 18 28.125V23.625ZM22.5 19.125C23.1213 19.125 23.625 19.6287 23.625 20.25V28.125C23.625 28.7463 23.1213 29.25 22.5 29.25C21.8787 29.25 21.375 28.7463 21.375 28.125V20.25C21.375 19.6287 21.8787 19.125 22.5 19.125ZM29.25 16.875C29.25 16.2537 28.7463 15.75 28.125 15.75C27.5037 15.75 27 16.2537 27 16.875V28.125C27 28.7463 27.5037 29.25 28.125 29.25C28.7463 29.25 29.25 28.7463 29.25 28.125V16.875Z" fill="white"/>
</svg>
