<svg width="36" height="36" viewBox="0 0 36 36" fill="none" xmlns="http://www.w3.org/2000/svg">
<path d="M27 19.5V16.5H33V19.5H27ZM28.8 30L24 26.4L25.8 24L30.6 27.6L28.8 30ZM25.8 12L24 9.6L28.8 6L30.6 8.4L25.8 12ZM7.5 28.5V22.5H6C5.175 22.5 4.469 22.2065 3.882 21.6195C3.295 21.0325 3.001 20.326 3 19.5V16.5C3 15.675 3.294 14.969 3.882 14.382C4.47 13.795 5.176 13.501 6 13.5H12L19.5 9V27L12 22.5H10.5V28.5H7.5ZM21 23.025V12.975C21.675 13.575 22.219 14.3065 22.632 15.1695C23.045 16.0325 23.251 16.976 23.25 18C23.249 19.024 23.0425 19.968 22.6305 20.832C22.2185 21.696 21.675 22.427 21 23.025Z" fill="#737791"/>
</svg>
