<svg width="39" height="38" viewBox="0 0 39 38" fill="none" xmlns="http://www.w3.org/2000/svg">
<ellipse cx="19.4752" cy="18.6304" rx="19.4752" ry="18.6304" fill="#FF947A"/>
<path fill-rule="evenodd" clip-rule="evenodd" d="M11.6855 13.041C11.6855 10.9832 13.4294 9.31494 15.5805 9.31494H21.4229V13.041C21.4229 15.0989 23.1668 16.7671 25.3179 16.7671H27.2654V24.2192C27.2654 26.2771 25.5215 27.9453 23.3704 27.9453H15.5805C13.4294 27.9453 11.6855 26.2771 11.6855 24.2192V13.041ZM15.5805 17.6986C15.0427 17.6986 14.6068 18.1157 14.6068 18.6301C14.6068 19.1446 15.0427 19.5616 15.5805 19.5616H17.528C18.0658 19.5616 18.5017 19.1446 18.5017 18.6301C18.5017 18.1157 18.0658 17.6986 17.528 17.6986H15.5805ZM15.5805 21.4247C15.0427 21.4247 14.6068 21.8417 14.6068 22.3562C14.6068 22.8707 15.0427 23.2877 15.5805 23.2877H19.4755C20.0132 23.2877 20.4492 22.8707 20.4492 22.3562C20.4492 21.8417 20.0132 21.4247 19.4755 21.4247H15.5805ZM24.0343 11.3632L23.9068 13.1927C23.8676 13.7551 24.3553 14.2216 24.9431 14.1842L26.8557 14.0622C27.6904 14.0089 28.071 13.04 27.4794 12.474L25.6944 10.7664C25.1029 10.2005 24.0899 10.5646 24.0343 11.3632Z" fill="white"/>
</svg>
