<svg width="38" height="40" viewBox="0 0 38 40" fill="none" xmlns="http://www.w3.org/2000/svg">
<ellipse cx="18.7277" cy="19.5653" rx="18.7277" ry="19.5653" fill="#BF83FF"/>
<path d="M16.8535 20.5439C20.4734 20.5439 23.4079 22.7333 23.4082 25.4346C23.4082 26.515 22.5326 27.3914 21.4521 27.3916H12.2559C11.1753 27.3916 10.2988 26.5151 10.2988 25.4346C10.2991 22.7334 13.2337 20.544 16.8535 20.5439ZM16.8535 11.7393C18.9221 11.7393 20.5996 13.4912 20.5996 15.6523C20.5996 17.8135 18.9221 19.5654 16.8535 19.5654C14.785 19.5654 13.1084 17.8134 13.1084 15.6523C13.1084 13.4913 14.785 11.7393 16.8535 11.7393ZM24.3447 13.6963C24.8616 13.6965 25.2802 14.1338 25.2803 14.6738V15.6523H26.2168C26.7339 15.6523 27.1533 16.0906 27.1533 16.6309C27.1532 17.171 26.7339 17.6084 26.2168 17.6084H25.2803V18.5869C25.2803 19.1271 24.8617 19.5652 24.3447 19.5654C23.8276 19.5654 23.4082 19.1272 23.4082 18.5869V17.6084H22.4717C21.9546 17.6084 21.5353 17.171 21.5352 16.6309C21.5352 16.0906 21.9545 15.6523 22.4717 15.6523H23.4082V14.6738C23.4083 14.1337 23.8277 13.6963 24.3447 13.6963Z" fill="white"/>
</svg>
