<svg width="28" height="26" viewBox="0 0 28 26" fill="none" xmlns="http://www.w3.org/2000/svg">
<path d="M16.3337 2.16699H7.00033C6.38149 2.16699 5.78799 2.39527 5.35041 2.80159C4.91282 3.20792 4.66699 3.75902 4.66699 4.33366V21.667C4.66699 22.2416 4.91282 22.7927 5.35041 23.1991C5.78799 23.6054 6.38149 23.8337 7.00033 23.8337H21.0003C21.6192 23.8337 22.2127 23.6054 22.6502 23.1991C23.0878 22.7927 23.3337 22.2416 23.3337 21.667V8.66699L16.3337 2.16699Z" stroke="#737791" stroke-width="2" stroke-linecap="round" stroke-linejoin="round"/>
<path d="M16.333 2.16699V8.66699H23.333" stroke="#737791" stroke-width="2" stroke-linecap="round" stroke-linejoin="round"/>
<path d="M18.6663 14.083H9.33301" stroke="#737791" stroke-width="2" stroke-linecap="round" stroke-linejoin="round"/>
<path d="M18.6663 18.417H9.33301" stroke="#737791" stroke-width="2" stroke-linecap="round" stroke-linejoin="round"/>
<path d="M11.6663 9.75H10.4997H9.33301" stroke="#737791" stroke-width="2" stroke-linecap="round" stroke-linejoin="round"/>
</svg>
