<svg width="27" height="24" viewBox="0 0 27 24" fill="none" xmlns="http://www.w3.org/2000/svg">
<path d="M12.9371 22.6147C13.1113 22.6147 13.2899 22.5756 13.4731 22.4973C13.6562 22.4191 13.8042 22.3236 13.9171 22.2107L24.3117 11.8147C24.6468 11.4796 24.9055 11.1373 25.0877 10.788C25.2691 10.4369 25.3597 10.052 25.3597 9.63333C25.3597 9.20933 25.2691 8.79778 25.0877 8.39867C24.9055 7.99867 24.6468 7.63422 24.3117 7.30533L19.3117 2.30533C18.9819 1.97022 18.6428 1.72444 18.2944 1.568C17.9468 1.41156 17.5611 1.33333 17.1371 1.33333C16.7184 1.33333 16.3295 1.41156 15.9704 1.568C15.6113 1.72444 15.2731 1.96978 14.9557 2.304L13.7931 3.46667L16.2597 5.94C16.5246 6.20044 16.7224 6.49644 16.8531 6.828C16.9828 7.15956 17.0477 7.496 17.0477 7.83733C17.0477 8.53156 16.8206 9.10578 16.3664 9.56C15.9122 10.0142 15.3384 10.2409 14.6451 10.24C14.3028 10.24 13.9691 10.188 13.6437 10.084C13.3184 9.98 13.0255 9.79778 12.7651 9.53733L10.2144 6.996L4.45705 12.752C4.32283 12.8871 4.22194 13.0404 4.15439 13.212C4.08683 13.3836 4.05305 13.5569 4.05305 13.732C4.05305 14.0467 4.15394 14.3058 4.35572 14.5093C4.55661 14.7138 4.81439 14.816 5.12906 14.816C5.30328 14.816 5.48194 14.7769 5.66506 14.6987C5.84817 14.6196 5.99617 14.5236 6.10905 14.4107L10.3344 10.1853L11.2784 11.1293L7.05972 15.356C6.92461 15.4902 6.82328 15.6431 6.75572 15.8147C6.68905 15.9871 6.65572 16.1604 6.65572 16.3347C6.65572 16.6324 6.76061 16.8862 6.97039 17.096C7.18017 17.3058 7.43394 17.4111 7.73172 17.412C7.90594 17.412 8.08461 17.3724 8.26772 17.2933C8.45083 17.2142 8.59883 17.1187 8.71172 17.0067L13.2451 12.4813L14.1891 13.424L9.66239 17.9573C9.54417 18.0702 9.44728 18.2182 9.37172 18.4013C9.29528 18.5844 9.25706 18.7631 9.25706 18.9373C9.25706 19.2342 9.36239 19.4876 9.57306 19.6973C9.78283 19.9089 10.0366 20.0147 10.3344 20.0147C10.5086 20.0147 10.6819 19.9809 10.8544 19.9133C11.0268 19.8458 11.1797 19.7444 11.3131 19.6093L15.8464 15.0827L16.7904 16.0267L12.2571 20.56C12.1228 20.6951 12.0219 20.8573 11.9544 21.0467C11.8868 21.236 11.8531 21.4089 11.8531 21.5653C11.8531 21.88 11.9637 22.1338 12.1851 22.3267C12.4064 22.5196 12.6571 22.616 12.9371 22.616M12.9291 23.9493C12.2437 23.9493 11.6571 23.6987 11.1691 23.1973C10.6811 22.6951 10.4668 22.0756 10.5264 21.3387C9.77083 21.3476 9.14194 21.1222 8.63972 20.6627C8.1375 20.2022 7.89883 19.5604 7.92372 18.7373C7.10061 18.7462 6.45172 18.5107 5.97705 18.0307C5.50239 17.5507 5.28639 16.9187 5.32905 16.1347C4.58772 16.1436 3.96728 15.9347 3.46772 15.508C2.96905 15.0831 2.71972 14.4911 2.71972 13.732C2.71972 13.3898 2.78594 13.0476 2.91839 12.7053C3.05083 12.3622 3.24639 12.0609 3.50505 11.8013L10.2144 5.1L13.6571 8.54267C13.7699 8.66089 13.9095 8.75822 14.0757 8.83467C14.2419 8.91111 14.4291 8.94889 14.6371 8.948C14.9224 8.948 15.1744 8.84844 15.3931 8.64933C15.6117 8.45022 15.7215 8.19067 15.7224 7.87067C15.7224 7.66267 15.6842 7.476 15.6077 7.31067C15.5313 7.14444 15.4344 7.00489 15.3171 6.892L10.7304 2.30533C10.3997 1.97022 10.0562 1.72444 9.69972 1.568C9.34328 1.41156 8.95305 1.33333 8.52905 1.33333C8.11039 1.33333 7.72994 1.41156 7.38772 1.568C7.04639 1.72444 6.70817 1.97022 6.37305 2.30533L2.31439 6.372C2.02817 6.65644 1.79705 6.99644 1.62105 7.392C1.44505 7.78667 1.35172 8.19422 1.34105 8.61467C1.33217 8.916 1.35794 9.20533 1.41839 9.48267C1.47883 9.76 1.57661 10.0213 1.71172 10.2667L0.701055 11.2773C0.477055 10.92 0.301943 10.5084 0.175721 10.0427C0.049499 9.57689 -0.00872331 9.10133 0.00105447 8.616C0.0117211 8.00978 0.133054 7.42978 0.365054 6.876C0.597054 6.32222 0.929499 5.82844 1.36239 5.39467L5.39572 1.36133C5.86061 0.900889 6.35261 0.558667 6.87172 0.334667C7.39083 0.111556 7.95217 0 8.55572 0C9.15928 0 9.71572 0.112 10.2251 0.336C10.7353 0.559111 11.2206 0.900889 11.6811 1.36133L12.8411 2.52267L14.0037 1.36133C14.4686 0.900889 14.9562 0.558667 15.4664 0.334667C15.9766 0.111556 16.5335 0 17.1371 0C17.7406 0 18.3019 0.112 18.8211 0.336C19.3393 0.559111 19.8282 0.900889 20.2877 1.36133L25.2557 6.328C25.7153 6.78756 26.0699 7.30355 26.3197 7.876C26.5695 8.44844 26.6939 9.03644 26.6931 9.64C26.6931 10.2444 26.5686 10.8013 26.3197 11.3107C26.0708 11.82 25.7162 12.3053 25.2557 12.7667L14.8597 23.1533C14.5833 23.4307 14.2819 23.6324 13.9557 23.7587C13.6304 23.8849 13.2882 23.948 12.9291 23.948" fill="#737791"/>
</svg>
