<svg width="39" height="34" viewBox="0 0 39 34" fill="none" xmlns="http://www.w3.org/2000/svg">
<path d="M12.4219 18.2476C12.4217 18.4968 12.5136 18.7403 12.6857 18.9467C12.8578 19.153 13.1021 19.3127 13.3871 19.4051L15.7503 20.173C16.0813 20.2811 16.3556 20.4794 16.5262 20.7338C16.6968 20.9882 16.7531 21.2828 16.6854 21.5672C16.6177 21.8516 16.4303 22.108 16.1552 22.2925C15.8801 22.4769 15.5346 22.5779 15.1778 22.5781H12.8512M14.5687 23.9727V22.5781M14.5687 12.8164C14.5687 14.6657 15.4734 16.4392 17.0839 17.7468C18.6943 19.0544 20.8786 19.7891 23.1561 19.7891C25.4336 19.7891 27.6178 19.0544 29.2282 17.7468C30.8387 16.4392 31.7434 14.6657 31.7434 12.8164C31.7434 10.9671 30.8387 9.19362 29.2282 7.88599C27.6178 6.57837 25.4336 5.84375 23.1561 5.84375C20.8786 5.84375 18.6943 6.57837 17.0839 7.88599C15.4734 9.19362 14.5687 10.9671 14.5687 12.8164Z" stroke="#737791" stroke-opacity="0.91" stroke-width="2" stroke-linecap="round" stroke-linejoin="round"/>
<path d="M11.1698 13.39C9.88133 13.8399 8.74819 14.5391 7.8694 15.4266C6.99061 16.3141 6.39291 17.3629 6.12854 18.4813C5.86418 19.5997 5.9412 20.7536 6.35287 21.8422C6.76453 22.9309 7.49832 23.9211 8.49009 24.7263C9.48187 25.5315 10.7014 26.1272 12.0422 26.4613C13.383 26.7955 14.8041 26.8579 16.1815 26.6431C17.5588 26.4284 18.8504 25.943 19.9434 25.2293C21.0363 24.5157 21.8974 23.5955 22.4513 22.5493M24.874 10.0273H22.5463C22.1896 10.0275 21.844 10.1285 21.5689 10.313C21.2939 10.4974 21.1064 10.7538 21.0387 11.0382C20.971 11.3226 21.0273 11.6173 21.1979 11.8717C21.3685 12.1261 21.6428 12.3243 21.9738 12.4324L24.337 13.2004C24.668 13.3085 24.9423 13.5067 25.1129 13.7611C25.2835 14.0155 25.3398 14.3102 25.2721 14.5946C25.2044 14.879 25.017 15.1354 24.7419 15.3198C24.4668 15.5043 24.1213 15.6053 23.7646 15.6055H21.4391M23.1566 10.0273V8.63281M23.1566 17V15.6055" stroke="#737791" stroke-opacity="0.91" stroke-width="2" stroke-linecap="round" stroke-linejoin="round"/>
</svg>
