<svg width="32" height="32" viewBox="0 0 32 32" fill="none" xmlns="http://www.w3.org/2000/svg">
<mask id="mask0_780_2342" style="mask-type:luminance" maskUnits="userSpaceOnUse" x="0" y="0" width="32" height="32">
<rect width="32" height="32" fill="white"/>
</mask>
<g mask="url(#mask0_780_2342)">
<path d="M13.6712 7.84582L14.0424 13.3658L14.2266 16.1402C14.2286 16.4255 14.2733 16.709 14.3596 16.9814C14.5821 17.5102 15.1176 17.8462 15.7001 17.8227L24.5764 17.242C24.9608 17.2358 25.332 17.3795 25.6082 17.6418C25.8385 17.8603 25.9872 18.1462 26.0341 18.4536L26.0498 18.6403C25.6825 23.7266 21.9469 27.969 16.8712 29.064C11.7954 30.1591 6.59045 27.8458 4.08225 23.3799C3.35915 22.0824 2.9075 20.6564 2.75381 19.1854C2.68961 18.7499 2.66134 18.31 2.66927 17.87C2.66134 12.417 6.54459 7.70265 11.9804 6.56613C12.6346 6.46425 13.276 6.8106 13.5384 7.40741C13.6062 7.54562 13.651 7.69365 13.6712 7.84582Z" fill="white" fill-opacity="0.91"/>
<path opacity="0.4" d="M29.3327 13.083L29.3234 13.1265L29.2965 13.1897L29.3002 13.3632C29.2863 13.5929 29.1975 13.814 29.0447 13.9926C28.8854 14.1786 28.6678 14.3053 28.4282 14.3545L28.2821 14.3745L18.041 15.0381C17.7003 15.0717 17.3611 14.9618 17.1079 14.736C16.8967 14.5476 16.7618 14.2934 16.7237 14.0196L16.0363 3.79337C16.0243 3.7588 16.0243 3.72132 16.0363 3.68673C16.0457 3.40485 16.1698 3.13841 16.3809 2.94693C16.5918 2.75545 16.8723 2.65489 17.1594 2.66772C23.2393 2.8224 28.3491 7.19435 29.3327 13.083Z" fill="white" fill-opacity="0.91"/>
</g>
</svg>
