<svg width="28" height="26" viewBox="0 0 28 26" fill="none" xmlns="http://www.w3.org/2000/svg">
<path d="M16.3327 2.16663H6.99935C6.38051 2.16663 5.78702 2.3949 5.34943 2.80123C4.91185 3.20756 4.66602 3.75866 4.66602 4.33329V21.6666C4.66602 22.2413 4.91185 22.7924 5.34943 23.1987C5.78702 23.605 6.38051 23.8333 6.99935 23.8333H20.9993C21.6182 23.8333 22.2117 23.605 22.6493 23.1987C23.0868 22.7924 23.3327 22.2413 23.3327 21.6666V8.66663L16.3327 2.16663Z" stroke="#737791" stroke-width="2" stroke-linecap="round" stroke-linejoin="round"/>
<path d="M16.334 2.16663V8.66663H23.334" stroke="#737791" stroke-width="2" stroke-linecap="round" stroke-linejoin="round"/>
<path d="M18.6673 14.0834H9.33398" stroke="#737791" stroke-width="2" stroke-linecap="round" stroke-linejoin="round"/>
<path d="M18.6673 18.4166H9.33398" stroke="#737791" stroke-width="2" stroke-linecap="round" stroke-linejoin="round"/>
<path d="M11.6673 9.75H10.5007H9.33398" stroke="#737791" stroke-width="2" stroke-linecap="round" stroke-linejoin="round"/>
</svg>
