<svg width="37" height="40" viewBox="0 0 37 40" fill="none" xmlns="http://www.w3.org/2000/svg">
<ellipse cx="18.3254" cy="19.7174" rx="18.3254" ry="19.7174" fill="#3CD856"/>
<path fill-rule="evenodd" clip-rule="evenodd" d="M21.998 11.1908L18.9745 11.6556C18.5125 11.7266 18.1351 11.9635 17.8656 12.2909L10.8109 19.8815C10.0952 20.6515 10.0952 21.8999 10.8109 22.67L13.4025 25.4585C14.1182 26.2285 15.2784 26.2285 15.9941 25.4585L23.0489 17.8678C23.3531 17.5779 23.5733 17.1718 23.6393 16.6748L24.0712 13.4216C24.2441 12.1203 23.2074 11.0049 21.998 11.1908ZM19.8815 15.6988C20.2393 16.0838 20.8195 16.0838 21.1773 15.6988C21.5351 15.3138 21.5351 14.6896 21.1773 14.3046C20.8195 13.9196 20.2393 13.9196 19.8815 14.3046C19.5237 14.6896 19.5237 15.3139 19.8815 15.6988Z" fill="white"/>
</svg>
