<svg width="32" height="32" viewBox="0 0 32 32" fill="none" xmlns="http://www.w3.org/2000/svg">
<mask id="mask0_823_4404" style="mask-type:luminance" maskUnits="userSpaceOnUse" x="0" y="0" width="32" height="32">
<rect width="32" height="32" fill="white"/>
</mask>
<g mask="url(#mask0_823_4404)">
<path d="M13.6702 7.84619L14.0414 13.3661L14.2257 16.1405C14.2277 16.4259 14.2723 16.7093 14.3586 16.9817C14.5811 17.5105 15.1166 17.8465 15.6991 17.8231L24.5754 17.2424C24.9598 17.2361 25.331 17.3799 25.6073 17.6421C25.8375 17.8607 25.9862 18.1465 26.0331 18.454L26.0489 18.6407C25.6815 23.7269 21.9459 27.9693 16.8702 29.0644C11.7944 30.1595 6.58947 27.8461 4.08127 23.3803C3.35818 22.0828 2.90652 20.6568 2.75283 19.1857C2.68863 18.7503 2.66036 18.3104 2.6683 17.8704C2.66036 12.4174 6.54362 7.70302 11.9794 6.5665C12.6337 6.46462 13.275 6.81096 13.5374 7.40778C13.6053 7.54599 13.6501 7.69402 13.6702 7.84619Z" fill="#737791"/>
<path opacity="0.4" d="M29.3337 13.0824L29.3244 13.1259L29.2975 13.189L29.3012 13.3625C29.2873 13.5923 29.1985 13.8133 29.0457 13.992C28.8864 14.178 28.6688 14.3047 28.4292 14.3539L28.2831 14.3739L18.042 15.0375C17.7013 15.0711 17.3621 14.9612 17.1089 14.7353C16.8977 14.5469 16.7628 14.2928 16.7247 14.0189L16.0373 3.79276C16.0253 3.75819 16.0253 3.72071 16.0373 3.68612C16.0467 3.40424 16.1708 3.1378 16.3819 2.94632C16.5928 2.75484 16.8733 2.65428 17.1604 2.66711C23.2403 2.82179 28.3501 7.19374 29.3337 13.0824Z" fill="#737791"/>
</g>
</svg>
