<svg width="32" height="32" viewBox="0 0 32 32" fill="none" xmlns="http://www.w3.org/2000/svg">
<path d="M25.3333 8.00065H22.6667C22.6667 4.26732 19.7333 1.33398 16 1.33398C12.2667 1.33398 9.33333 4.26732 9.33333 8.00065H6.66667C5.2 8.00065 4 9.20065 4 10.6673V26.6673C4 28.134 5.2 29.334 6.66667 29.334H25.3333C26.8 29.334 28 28.134 28 26.6673V10.6673C28 9.20065 26.8 8.00065 25.3333 8.00065ZM16 4.00065C18.2667 4.00065 20 5.73398 20 8.00065H12C12 5.73398 13.7333 4.00065 16 4.00065ZM25.3333 26.6673H6.66667V10.6673H25.3333V26.6673ZM16 16.0007C13.7333 16.0007 12 14.2673 12 12.0007H9.33333C9.33333 15.734 12.2667 18.6673 16 18.6673C19.7333 18.6673 22.6667 15.734 22.6667 12.0007H20C20 14.2673 18.2667 16.0007 16 16.0007Z" fill="#737791"/>
</svg>
