<svg width="40" height="39" viewBox="0 0 40 39" fill="none" xmlns="http://www.w3.org/2000/svg">
<ellipse cx="19.7778" cy="19.5" rx="19.7778" ry="19.5" fill="#FA5A7D"/>
<path fill-rule="evenodd" clip-rule="evenodd" d="M12.8547 10.7249C11.7624 10.7249 10.877 11.5979 10.877 12.6749V26.3249C10.877 27.4018 11.7624 28.2749 12.8547 28.2749H26.6992C27.7915 28.2749 28.6769 27.4018 28.6769 26.3249V12.6749C28.6769 11.5979 27.7915 10.7249 26.6992 10.7249H12.8547ZM15.8214 20.4749C15.8214 19.9364 15.3787 19.4999 14.8325 19.4999C14.2864 19.4999 13.8436 19.9364 13.8436 20.4749V24.3749C13.8436 24.9134 14.2864 25.3499 14.8325 25.3499C15.3787 25.3499 15.8214 24.9134 15.8214 24.3749V20.4749ZM19.777 16.5749C20.3231 16.5749 20.7658 17.0114 20.7658 17.5499V24.3749C20.7658 24.9134 20.3231 25.3499 19.777 25.3499C19.2308 25.3499 18.7881 24.9134 18.7881 24.3749V17.5499C18.7881 17.0114 19.2308 16.5749 19.777 16.5749ZM25.7103 14.6249C25.7103 14.0864 25.2675 13.6499 24.7214 13.6499C24.1752 13.6499 23.7325 14.0864 23.7325 14.6249V24.3749C23.7325 24.9134 24.1752 25.3499 24.7214 25.3499C25.2675 25.3499 25.7103 24.9134 25.7103 24.3749V14.6249Z" fill="white"/>
</svg>
