<svg width="200" height="180" viewBox="0 0 200 180" fill="none" xmlns="http://www.w3.org/2000/svg">
<rect width="200" height="180" rx="16" fill="#FFF4DE"/>
<path d="M34.344 156.244H31.92V158.728H30.648V156.244H28.224V155.092H30.648V152.608H31.92V155.092H34.344V156.244ZM41.9264 152.428H37.9064V154.816C38.0744 154.592 38.3224 154.404 38.6504 154.252C38.9864 154.1 39.3424 154.024 39.7184 154.024C40.3904 154.024 40.9344 154.168 41.3504 154.456C41.7744 154.744 42.0744 155.108 42.2504 155.548C42.4344 155.988 42.5264 156.452 42.5264 156.94C42.5264 157.532 42.4104 158.06 42.1784 158.524C41.9544 158.98 41.6144 159.34 41.1584 159.604C40.7104 159.868 40.1584 160 39.5024 160C38.6304 160 37.9304 159.784 37.4024 159.352C36.8744 158.92 36.5584 158.348 36.4544 157.636H37.7864C37.8744 158.012 38.0704 158.312 38.3744 158.536C38.6784 158.752 39.0584 158.86 39.5144 158.86C40.0824 158.86 40.5064 158.688 40.7864 158.344C41.0744 158 41.2184 157.544 41.2184 156.976C41.2184 156.4 41.0744 155.96 40.7864 155.656C40.4984 155.344 40.0744 155.188 39.5144 155.188C39.1224 155.188 38.7904 155.288 38.5184 155.488C38.2544 155.68 38.0624 155.944 37.9424 156.28H36.6464V151.228H41.9264V152.428ZM43.7345 153.364C43.7345 152.78 43.9025 152.324 44.2385 151.996C44.5825 151.66 45.0225 151.492 45.5585 151.492C46.0945 151.492 46.5305 151.66 46.8665 151.996C47.2105 152.324 47.3825 152.78 47.3825 153.364C47.3825 153.948 47.2105 154.408 46.8665 154.744C46.5305 155.08 46.0945 155.248 45.5585 155.248C45.0225 155.248 44.5825 155.08 44.2385 154.744C43.9025 154.408 43.7345 153.948 43.7345 153.364ZM51.0545 151.648L46.2665 160H44.9225L49.7105 151.648H51.0545ZM45.5585 152.32C45.0545 152.32 44.8025 152.668 44.8025 153.364C44.8025 154.068 45.0545 154.42 45.5585 154.42C45.7985 154.42 45.9825 154.336 46.1105 154.168C46.2465 153.992 46.3145 153.724 46.3145 153.364C46.3145 152.668 46.0625 152.32 45.5585 152.32ZM48.6185 158.272C48.6185 157.688 48.7865 157.232 49.1225 156.904C49.4665 156.568 49.9065 156.4 50.4425 156.4C50.9705 156.4 51.4025 156.568 51.7385 156.904C52.0825 157.232 52.2545 157.688 52.2545 158.272C52.2545 158.856 52.0825 159.316 51.7385 159.652C51.4025 159.988 50.9705 160.156 50.4425 160.156C49.9065 160.156 49.4665 159.988 49.1225 159.652C48.7865 159.316 48.6185 158.856 48.6185 158.272ZM50.4305 157.228C49.9265 157.228 49.6745 157.576 49.6745 158.272C49.6745 158.968 49.9265 159.316 50.4305 159.316C50.9345 159.316 51.1865 158.968 51.1865 158.272C51.1865 157.576 50.9345 157.228 50.4305 157.228ZM59.547 154.504H58.323V160H56.943V154.504H56.163V153.388H56.943V152.92C56.943 152.16 57.143 151.608 57.543 151.264C57.951 150.912 58.587 150.736 59.451 150.736V151.876C59.035 151.876 58.743 151.956 58.575 152.116C58.407 152.268 58.323 152.536 58.323 152.92V153.388H59.547V154.504ZM62.1274 154.348C62.3274 154.012 62.5914 153.752 62.9194 153.568C63.2554 153.376 63.6514 153.28 64.1074 153.28V154.696H63.7594C63.2234 154.696 62.8154 154.832 62.5354 155.104C62.2634 155.376 62.1274 155.848 62.1274 156.52V160H60.7594V153.388H62.1274V154.348ZM68.2328 160.108C67.6088 160.108 67.0448 159.968 66.5408 159.688C66.0368 159.4 65.6408 159 65.3528 158.488C65.0648 157.968 64.9208 157.368 64.9208 156.688C64.9208 156.016 65.0688 155.42 65.3648 154.9C65.6608 154.38 66.0648 153.98 66.5768 153.7C67.0888 153.42 67.6608 153.28 68.2928 153.28C68.9248 153.28 69.4968 153.42 70.0088 153.7C70.5208 153.98 70.9248 154.38 71.2208 154.9C71.5168 155.42 71.6648 156.016 71.6648 156.688C71.6648 157.36 71.5128 157.956 71.2088 158.476C70.9048 158.996 70.4888 159.4 69.9608 159.688C69.4408 159.968 68.8648 160.108 68.2328 160.108ZM68.2328 158.92C68.5848 158.92 68.9128 158.836 69.2168 158.668C69.5288 158.5 69.7808 158.248 69.9728 157.912C70.1648 157.576 70.2608 157.168 70.2608 156.688C70.2608 156.208 70.1688 155.804 69.9848 155.476C69.8008 155.14 69.5568 154.888 69.2528 154.72C68.9488 154.552 68.6208 154.468 68.2688 154.468C67.9168 154.468 67.5888 154.552 67.2848 154.72C66.9888 154.888 66.7528 155.14 66.5768 155.476C66.4008 155.804 66.3128 156.208 66.3128 156.688C66.3128 157.4 66.4928 157.952 66.8528 158.344C67.2208 158.728 67.6808 158.92 68.2328 158.92ZM81.0212 153.28C81.5412 153.28 82.0052 153.388 82.4132 153.604C82.8292 153.82 83.1532 154.14 83.3852 154.564C83.6252 154.988 83.7452 155.5 83.7452 156.1V160H82.3892V156.304C82.3892 155.712 82.2412 155.26 81.9452 154.948C81.6492 154.628 81.2452 154.468 80.7332 154.468C80.2212 154.468 79.8132 154.628 79.5092 154.948C79.2132 155.26 79.0652 155.712 79.0652 156.304V160H77.7092V156.304C77.7092 155.712 77.5612 155.26 77.2652 154.948C76.9692 154.628 76.5652 154.468 76.0532 154.468C75.5412 154.468 75.1332 154.628 74.8292 154.948C74.5332 155.26 74.3852 155.712 74.3852 156.304V160H73.0172V153.388H74.3852V154.144C74.6092 153.872 74.8932 153.66 75.2372 153.508C75.5812 153.356 75.9492 153.28 76.3412 153.28C76.8692 153.28 77.3412 153.392 77.7572 153.616C78.1732 153.84 78.4932 154.164 78.7172 154.588C78.9172 154.188 79.2292 153.872 79.6532 153.64C80.0772 153.4 80.5332 153.28 81.0212 153.28ZM94.5551 153.388L90.4991 163.108H89.0831L90.4271 159.892L87.8231 153.388H89.3471L91.2071 158.428L93.1391 153.388H94.5551ZM101.648 156.532C101.648 156.78 101.632 157.004 101.6 157.204H96.5475C96.5875 157.732 96.7835 158.156 97.1355 158.476C97.4875 158.796 97.9195 158.956 98.4315 158.956C99.1675 158.956 99.6875 158.648 99.9915 158.032H101.467C101.268 158.64 100.904 159.14 100.376 159.532C99.8555 159.916 99.2075 160.108 98.4315 160.108C97.7995 160.108 97.2315 159.968 96.7275 159.688C96.2315 159.4 95.8395 159 95.5515 158.488C95.2715 157.968 95.1315 157.368 95.1315 156.688C95.1315 156.008 95.2675 155.412 95.5395 154.9C95.8195 154.38 96.2075 153.98 96.7035 153.7C97.2075 153.42 97.7835 153.28 98.4315 153.28C99.0555 153.28 99.6115 153.416 100.1 153.688C100.588 153.96 100.968 154.344 101.24 154.84C101.512 155.328 101.648 155.892 101.648 156.532ZM100.22 156.1C100.212 155.596 100.032 155.192 99.6795 154.888C99.3275 154.584 98.8915 154.432 98.3715 154.432C97.8995 154.432 97.4955 154.584 97.1595 154.888C96.8235 155.184 96.6235 155.588 96.5595 156.1H100.22ZM105.394 160.108C104.874 160.108 104.406 160.016 103.99 159.832C103.582 159.64 103.258 159.384 103.018 159.064C102.778 158.736 102.65 158.372 102.634 157.972H104.05C104.074 158.252 104.206 158.488 104.446 158.68C104.694 158.864 105.002 158.956 105.37 158.956C105.754 158.956 106.05 158.884 106.258 158.74C106.474 158.588 106.582 158.396 106.582 158.164C106.582 157.916 106.462 157.732 106.222 157.612C105.99 157.492 105.618 157.36 105.106 157.216C104.61 157.08 104.206 156.948 103.894 156.82C103.582 156.692 103.31 156.496 103.078 156.232C102.854 155.968 102.742 155.62 102.742 155.188C102.742 154.836 102.846 154.516 103.054 154.228C103.262 153.932 103.558 153.7 103.942 153.532C104.334 153.364 104.782 153.28 105.286 153.28C106.038 153.28 106.642 153.472 107.098 153.856C107.562 154.232 107.81 154.748 107.842 155.404H106.474C106.45 155.108 106.33 154.872 106.114 154.696C105.898 154.52 105.606 154.432 105.238 154.432C104.878 154.432 104.602 154.5 104.41 154.636C104.218 154.772 104.122 154.952 104.122 155.176C104.122 155.352 104.186 155.5 104.314 155.62C104.442 155.74 104.598 155.836 104.782 155.908C104.966 155.972 105.238 156.056 105.598 156.16C106.078 156.288 106.47 156.42 106.774 156.556C107.086 156.684 107.354 156.876 107.578 157.132C107.802 157.388 107.918 157.728 107.926 158.152C107.926 158.528 107.822 158.864 107.614 159.16C107.406 159.456 107.11 159.688 106.726 159.856C106.35 160.024 105.906 160.108 105.394 160.108ZM111 154.504V158.164C111 158.412 111.056 158.592 111.168 158.704C111.288 158.808 111.488 158.86 111.768 158.86H112.608V160H111.528C110.912 160 110.44 159.856 110.112 159.568C109.784 159.28 109.62 158.812 109.62 158.164V154.504H108.84V153.388H109.62V151.744H111V153.388H112.608V154.504H111ZM119.929 156.532C119.929 156.78 119.913 157.004 119.881 157.204H114.829C114.869 157.732 115.065 158.156 115.417 158.476C115.769 158.796 116.201 158.956 116.713 158.956C117.449 158.956 117.969 158.648 118.273 158.032H119.749C119.549 158.64 119.185 159.14 118.657 159.532C118.137 159.916 117.489 160.108 116.713 160.108C116.081 160.108 115.513 159.968 115.009 159.688C114.513 159.4 114.121 159 113.833 158.488C113.553 157.968 113.413 157.368 113.413 156.688C113.413 156.008 113.549 155.412 113.821 154.9C114.101 154.38 114.489 153.98 114.985 153.7C115.489 153.42 116.065 153.28 116.713 153.28C117.337 153.28 117.893 153.416 118.381 153.688C118.869 153.96 119.249 154.344 119.521 154.84C119.793 155.328 119.929 155.892 119.929 156.532ZM118.501 156.1C118.493 155.596 118.313 155.192 117.961 154.888C117.609 154.584 117.173 154.432 116.653 154.432C116.181 154.432 115.777 154.584 115.441 154.888C115.105 155.184 114.905 155.588 114.841 156.1H118.501ZM122.643 154.348C122.843 154.012 123.107 153.752 123.435 153.568C123.771 153.376 124.167 153.28 124.623 153.28V154.696H124.275C123.739 154.696 123.331 154.832 123.051 155.104C122.779 155.376 122.643 155.848 122.643 156.52V160H121.275V153.388H122.643V154.348ZM125.424 156.664C125.424 156 125.56 155.412 125.832 154.9C126.112 154.388 126.488 153.992 126.96 153.712C127.44 153.424 127.972 153.28 128.556 153.28C128.988 153.28 129.412 153.376 129.828 153.568C130.252 153.752 130.588 154 130.836 154.312V151.12H132.216V160H130.836V159.004C130.612 159.324 130.3 159.588 129.9 159.796C129.508 160.004 129.056 160.108 128.544 160.108C127.968 160.108 127.44 159.964 126.96 159.676C126.488 159.38 126.112 158.972 125.832 158.452C125.56 157.924 125.424 157.328 125.424 156.664ZM130.836 156.688C130.836 156.232 130.74 155.836 130.548 155.5C130.364 155.164 130.12 154.908 129.816 154.732C129.512 154.556 129.184 154.468 128.832 154.468C128.48 154.468 128.152 154.556 127.848 154.732C127.544 154.9 127.296 155.152 127.104 155.488C126.92 155.816 126.828 156.208 126.828 156.664C126.828 157.12 126.92 157.52 127.104 157.864C127.296 158.208 127.544 158.472 127.848 158.656C128.16 158.832 128.488 158.92 128.832 158.92C129.184 158.92 129.512 158.832 129.816 158.656C130.12 158.48 130.364 158.224 130.548 157.888C130.74 157.544 130.836 157.144 130.836 156.688ZM133.557 156.664C133.557 156 133.693 155.412 133.965 154.9C134.245 154.388 134.621 153.992 135.093 153.712C135.573 153.424 136.101 153.28 136.677 153.28C137.197 153.28 137.649 153.384 138.033 153.592C138.425 153.792 138.737 154.044 138.969 154.348V153.388H140.349V160H138.969V159.016C138.737 159.328 138.421 159.588 138.021 159.796C137.621 160.004 137.165 160.108 136.653 160.108C136.085 160.108 135.565 159.964 135.093 159.676C134.621 159.38 134.245 158.972 133.965 158.452C133.693 157.924 133.557 157.328 133.557 156.664ZM138.969 156.688C138.969 156.232 138.873 155.836 138.681 155.5C138.497 155.164 138.253 154.908 137.949 154.732C137.645 154.556 137.317 154.468 136.965 154.468C136.613 154.468 136.285 154.556 135.981 154.732C135.677 154.9 135.429 155.152 135.237 155.488C135.053 155.816 134.961 156.208 134.961 156.664C134.961 157.12 135.053 157.52 135.237 157.864C135.429 158.208 135.677 158.472 135.981 158.656C136.293 158.832 136.621 158.92 136.965 158.92C137.317 158.92 137.645 158.832 137.949 158.656C138.253 158.48 138.497 158.224 138.681 157.888C138.873 157.544 138.969 157.144 138.969 156.688ZM148.098 153.388L144.042 163.108H142.626L143.97 159.892L141.366 153.388H142.89L144.75 158.428L146.682 153.388H148.098Z" fill="#4079ED"/>
<path d="M35.384 119.88V121.368H32.424V131H30.6V121.368H27.624V119.88H35.384ZM41.0553 131.144C40.2233 131.144 39.4713 130.957 38.7993 130.584C38.1273 130.2 37.5993 129.667 37.2153 128.984C36.8313 128.291 36.6393 127.491 36.6393 126.584C36.6393 125.688 36.8366 124.893 37.2313 124.2C37.6259 123.507 38.1646 122.973 38.8473 122.6C39.5299 122.227 40.2926 122.04 41.1353 122.04C41.9779 122.04 42.7406 122.227 43.4233 122.6C44.1059 122.973 44.6446 123.507 45.0393 124.2C45.4339 124.893 45.6313 125.688 45.6313 126.584C45.6313 127.48 45.4286 128.275 45.0233 128.968C44.6179 129.661 44.0633 130.2 43.3593 130.584C42.6659 130.957 41.8979 131.144 41.0553 131.144ZM41.0553 129.56C41.5246 129.56 41.9619 129.448 42.3673 129.224C42.7833 129 43.1193 128.664 43.3753 128.216C43.6313 127.768 43.7593 127.224 43.7593 126.584C43.7593 125.944 43.6366 125.405 43.3913 124.968C43.1459 124.52 42.8206 124.184 42.4153 123.96C42.0099 123.736 41.5726 123.624 41.1033 123.624C40.6339 123.624 40.1966 123.736 39.7913 123.96C39.3966 124.184 39.0819 124.52 38.8473 124.968C38.6126 125.405 38.4953 125.944 38.4953 126.584C38.4953 127.533 38.7353 128.269 39.2153 128.792C39.7059 129.304 40.3193 129.56 41.0553 129.56ZM49.5624 123.672V128.552C49.5624 128.883 49.637 129.123 49.7864 129.272C49.9464 129.411 50.213 129.48 50.5864 129.48H51.7064V131H50.2664C49.445 131 48.8157 130.808 48.3784 130.424C47.941 130.04 47.7224 129.416 47.7224 128.552V123.672H46.6824V122.184H47.7224V119.992H49.5624V122.184H51.7064V123.672H49.5624ZM52.7795 126.552C52.7795 125.667 52.9608 124.883 53.3235 124.2C53.6968 123.517 54.1982 122.989 54.8275 122.616C55.4675 122.232 56.1715 122.04 56.9395 122.04C57.6328 122.04 58.2355 122.179 58.7475 122.456C59.2702 122.723 59.6862 123.059 59.9955 123.464V122.184H61.8355V131H59.9955V129.688C59.6862 130.104 59.2648 130.451 58.7315 130.728C58.1982 131.005 57.5902 131.144 56.9075 131.144C56.1502 131.144 55.4568 130.952 54.8275 130.568C54.1982 130.173 53.6968 129.629 53.3235 128.936C52.9608 128.232 52.7795 127.437 52.7795 126.552ZM59.9955 126.584C59.9955 125.976 59.8675 125.448 59.6115 125C59.3662 124.552 59.0408 124.211 58.6355 123.976C58.2302 123.741 57.7928 123.624 57.3235 123.624C56.8542 123.624 56.4168 123.741 56.0115 123.976C55.6062 124.2 55.2755 124.536 55.0195 124.984C54.7742 125.421 54.6515 125.944 54.6515 126.552C54.6515 127.16 54.7742 127.693 55.0195 128.152C55.2755 128.611 55.6062 128.963 56.0115 129.208C56.4275 129.443 56.8648 129.56 57.3235 129.56C57.7928 129.56 58.2302 129.443 58.6355 129.208C59.0408 128.973 59.3662 128.632 59.6115 128.184C59.8675 127.725 59.9955 127.192 59.9955 126.584ZM66.0553 119.16V131H64.2313V119.16H66.0553ZM71.9983 125.416C71.9983 124.328 72.2489 123.352 72.7503 122.488C73.2623 121.624 73.9503 120.952 74.8143 120.472C75.6889 119.981 76.6436 119.736 77.6783 119.736C78.8623 119.736 79.9129 120.029 80.8303 120.616C81.7583 121.192 82.4303 122.013 82.8463 123.08H80.6543C80.3663 122.493 79.9663 122.056 79.4543 121.768C78.9423 121.48 78.3503 121.336 77.6783 121.336C76.9423 121.336 76.2863 121.501 75.7103 121.832C75.1343 122.163 74.6809 122.637 74.3503 123.256C74.0303 123.875 73.8703 124.595 73.8703 125.416C73.8703 126.237 74.0303 126.957 74.3503 127.576C74.6809 128.195 75.1343 128.675 75.7103 129.016C76.2863 129.347 76.9423 129.512 77.6783 129.512C78.3503 129.512 78.9423 129.368 79.4543 129.08C79.9663 128.792 80.3663 128.355 80.6543 127.768H82.8463C82.4303 128.835 81.7583 129.656 80.8303 130.232C79.9129 130.808 78.8623 131.096 77.6783 131.096C76.6329 131.096 75.6783 130.856 74.8143 130.376C73.9503 129.885 73.2623 129.208 72.7503 128.344C72.2489 127.48 71.9983 126.504 71.9983 125.416ZM88.8053 131.144C87.9733 131.144 87.2213 130.957 86.5493 130.584C85.8773 130.2 85.3493 129.667 84.9653 128.984C84.5813 128.291 84.3893 127.491 84.3893 126.584C84.3893 125.688 84.5866 124.893 84.9813 124.2C85.3759 123.507 85.9146 122.973 86.5973 122.6C87.2799 122.227 88.0426 122.04 88.8853 122.04C89.7279 122.04 90.4906 122.227 91.1733 122.6C91.8559 122.973 92.3946 123.507 92.7893 124.2C93.1839 124.893 93.3813 125.688 93.3813 126.584C93.3813 127.48 93.1786 128.275 92.7733 128.968C92.3679 129.661 91.8133 130.2 91.1093 130.584C90.4159 130.957 89.6479 131.144 88.8053 131.144ZM88.8053 129.56C89.2746 129.56 89.7119 129.448 90.1173 129.224C90.5333 129 90.8693 128.664 91.1253 128.216C91.3813 127.768 91.5093 127.224 91.5093 126.584C91.5093 125.944 91.3866 125.405 91.1413 124.968C90.8959 124.52 90.5706 124.184 90.1653 123.96C89.7599 123.736 89.3226 123.624 88.8533 123.624C88.3839 123.624 87.9466 123.736 87.5413 123.96C87.1466 124.184 86.8319 124.52 86.5973 124.968C86.3626 125.405 86.2453 125.944 86.2453 126.584C86.2453 127.533 86.4853 128.269 86.9653 128.792C87.4559 129.304 88.0693 129.56 88.8053 129.56ZM98.3844 131.144C97.691 131.144 97.067 131.021 96.5124 130.776C95.9684 130.52 95.5364 130.179 95.2164 129.752C94.8964 129.315 94.7257 128.829 94.7044 128.296H96.5924C96.6244 128.669 96.8004 128.984 97.1204 129.24C97.451 129.485 97.8617 129.608 98.3524 129.608C98.8644 129.608 99.259 129.512 99.5364 129.32C99.8244 129.117 99.9684 128.861 99.9684 128.552C99.9684 128.221 99.8084 127.976 99.4884 127.816C99.179 127.656 98.683 127.48 98.0004 127.288C97.339 127.107 96.8004 126.931 96.3844 126.76C95.9684 126.589 95.6057 126.328 95.2964 125.976C94.9977 125.624 94.8484 125.16 94.8484 124.584C94.8484 124.115 94.987 123.688 95.2644 123.304C95.5417 122.909 95.9364 122.6 96.4484 122.376C96.971 122.152 97.5684 122.04 98.2404 122.04C99.243 122.04 100.048 122.296 100.656 122.808C101.275 123.309 101.606 123.997 101.648 124.872H99.8244C99.7924 124.477 99.6324 124.163 99.3444 123.928C99.0564 123.693 98.667 123.576 98.1764 123.576C97.6964 123.576 97.3284 123.667 97.0724 123.848C96.8164 124.029 96.6884 124.269 96.6884 124.568C96.6884 124.803 96.7737 125 96.9444 125.16C97.115 125.32 97.323 125.448 97.5684 125.544C97.8137 125.629 98.1764 125.741 98.6564 125.88C99.2964 126.051 99.819 126.227 100.224 126.408C100.64 126.579 100.998 126.835 101.296 127.176C101.595 127.517 101.75 127.971 101.76 128.536C101.76 129.037 101.622 129.485 101.344 129.88C101.067 130.275 100.672 130.584 100.16 130.808C99.659 131.032 99.067 131.144 98.3844 131.144ZM105.859 123.672V128.552C105.859 128.883 105.934 129.123 106.083 129.272C106.243 129.411 106.51 129.48 106.883 129.48H108.003V131H106.563C105.742 131 105.113 130.808 104.675 130.424C104.238 130.04 104.019 129.416 104.019 128.552V123.672H102.979V122.184H104.019V119.992H105.859V122.184H108.003V123.672H105.859Z" fill="#425166"/>
<path d="M28.32 84.112C28.4 82.512 28.96 81.28 30 80.416C31.056 79.536 32.44 79.096 34.152 79.096C35.32 79.096 36.32 79.304 37.152 79.72C37.984 80.12 38.608 80.672 39.024 81.376C39.456 82.064 39.672 82.848 39.672 83.728C39.672 84.736 39.408 85.592 38.88 86.296C38.368 86.984 37.752 87.448 37.032 87.688V87.784C37.96 88.072 38.68 88.584 39.192 89.32C39.72 90.056 39.984 91 39.984 92.152C39.984 93.112 39.76 93.968 39.312 94.72C38.88 95.472 38.232 96.064 37.368 96.496C36.52 96.912 35.496 97.12 34.296 97.12C32.488 97.12 31.016 96.664 29.88 95.752C28.744 94.84 28.144 93.496 28.08 91.72H31.344C31.376 92.504 31.64 93.136 32.136 93.616C32.648 94.08 33.344 94.312 34.224 94.312C35.04 94.312 35.664 94.088 36.096 93.64C36.544 93.176 36.768 92.584 36.768 91.864C36.768 90.904 36.464 90.216 35.856 89.8C35.248 89.384 34.304 89.176 33.024 89.176H32.328V86.416H33.024C35.296 86.416 36.432 85.656 36.432 84.136C36.432 83.448 36.224 82.912 35.808 82.528C35.408 82.144 34.824 81.952 34.056 81.952C33.304 81.952 32.72 82.16 32.304 82.576C31.904 82.976 31.672 83.488 31.608 84.112H28.32ZM42.6392 88.024C42.6392 85.256 43.1352 83.088 44.1272 81.52C45.1352 79.952 46.7992 79.168 49.1192 79.168C51.4392 79.168 53.0952 79.952 54.0872 81.52C55.0952 83.088 55.5992 85.256 55.5992 88.024C55.5992 90.808 55.0952 92.992 54.0872 94.576C53.0952 96.16 51.4392 96.952 49.1192 96.952C46.7992 96.952 45.1352 96.16 44.1272 94.576C43.1352 92.992 42.6392 90.808 42.6392 88.024ZM52.2872 88.024C52.2872 86.84 52.2072 85.848 52.0472 85.048C51.9032 84.232 51.5992 83.568 51.1352 83.056C50.6872 82.544 50.0152 82.288 49.1192 82.288C48.2232 82.288 47.5432 82.544 47.0792 83.056C46.6312 83.568 46.3272 84.232 46.1672 85.048C46.0232 85.848 45.9512 86.84 45.9512 88.024C45.9512 89.24 46.0232 90.264 46.1672 91.096C46.3112 91.912 46.6152 92.576 47.0792 93.088C47.5432 93.584 48.2232 93.832 49.1192 93.832C50.0152 93.832 50.6952 93.584 51.1592 93.088C51.6232 92.576 51.9272 91.912 52.0712 91.096C52.2152 90.264 52.2872 89.24 52.2872 88.024ZM58.1548 88.024C58.1548 85.256 58.6508 83.088 59.6428 81.52C60.6508 79.952 62.3148 79.168 64.6348 79.168C66.9548 79.168 68.6108 79.952 69.6028 81.52C70.6108 83.088 71.1148 85.256 71.1148 88.024C71.1148 90.808 70.6108 92.992 69.6028 94.576C68.6108 96.16 66.9548 96.952 64.6348 96.952C62.3148 96.952 60.6508 96.16 59.6428 94.576C58.6508 92.992 58.1548 90.808 58.1548 88.024ZM67.8028 88.024C67.8028 86.84 67.7228 85.848 67.5628 85.048C67.4188 84.232 67.1148 83.568 66.6508 83.056C66.2028 82.544 65.5308 82.288 64.6348 82.288C63.7388 82.288 63.0588 82.544 62.5948 83.056C62.1468 83.568 61.8428 84.232 61.6828 85.048C61.5388 85.848 61.4668 86.84 61.4668 88.024C61.4668 89.24 61.5388 90.264 61.6828 91.096C61.8268 91.912 62.1308 92.576 62.5948 93.088C63.0588 93.584 63.7388 93.832 64.6348 93.832C65.5308 93.832 66.2108 93.584 66.6748 93.088C67.1388 92.576 67.4428 91.912 67.5868 91.096C67.7308 90.264 67.8028 89.24 67.8028 88.024Z" fill="#151D48"/>
<ellipse cx="48.1658" cy="39.1304" rx="21.1658" ry="20.1304" fill="#FF947A"/>
<path fill-rule="evenodd" clip-rule="evenodd" d="M39.6992 33.0925C39.6992 30.8689 41.5945 29.0664 43.9324 29.0664H50.2821V33.0925C50.2821 35.316 52.1774 37.1186 54.5153 37.1186H56.6318V45.1708C56.6318 47.3943 54.7366 49.1968 52.3987 49.1968H43.9324C41.5945 49.1968 39.6992 47.3943 39.6992 45.1708V33.0925ZM43.9324 38.1251C43.3479 38.1251 42.8741 38.5757 42.8741 39.1316C42.8741 39.6875 43.3479 40.1381 43.9324 40.1381H46.049C46.6334 40.1381 47.1072 39.6875 47.1072 39.1316C47.1072 38.5757 46.6334 38.1251 46.049 38.1251H43.9324ZM43.9324 42.1512C43.3479 42.1512 42.8741 42.6018 42.8741 43.1577C42.8741 43.7136 43.3479 44.1642 43.9324 44.1642H48.1655C48.75 44.1642 49.2238 43.7136 49.2238 43.1577C49.2238 42.6018 48.75 42.1512 48.1655 42.1512H43.9324ZM53.1202 31.2795L52.9816 33.2564C52.9391 33.8641 53.4691 34.3682 54.108 34.3277L56.1866 34.1959C57.0938 34.1384 57.5074 33.0914 56.8645 32.4799L54.9245 30.6348C54.2816 30.0233 53.1807 30.4167 53.1202 31.2795Z" fill="white"/>
</svg>
