<svg width="323" height="298" viewBox="0 0 323 298" fill="none" xmlns="http://www.w3.org/2000/svg">
<g filter="url(#filter0_d_225_3457)">
<rect x="3" y="2" width="317" height="313" rx="12" fill="white"/>
</g>
<g clip-path="url(#clip0_225_3457)">
<path d="M39.3153 264.139C38.6326 264.139 38.0294 264.018 37.5057 263.776C36.9853 263.531 36.5793 263.195 36.2876 262.767C35.996 262.336 35.8518 261.846 35.8551 261.295C35.8518 260.865 35.9363 260.467 36.1087 260.102C36.281 259.734 36.5163 259.428 36.8146 259.183C37.1162 258.934 37.4527 258.777 37.8239 258.71V258.651C37.3366 258.525 36.9489 258.251 36.6605 257.83C36.3722 257.406 36.2296 256.924 36.233 256.384C36.2296 255.866 36.3606 255.404 36.6257 254.996C36.8909 254.589 37.2554 254.267 37.7195 254.032C38.1868 253.797 38.7188 253.679 39.3153 253.679C39.9053 253.679 40.4323 253.797 40.8963 254.032C41.3603 254.267 41.7249 254.589 41.9901 254.996C42.2585 255.404 42.3944 255.866 42.3977 256.384C42.3944 256.924 42.2469 257.406 41.9553 257.83C41.6669 258.251 41.2841 258.525 40.8068 258.651V258.71C41.1747 258.777 41.5062 258.934 41.8011 259.183C42.0961 259.428 42.3314 259.734 42.5071 260.102C42.6828 260.467 42.7723 260.865 42.7756 261.295C42.7723 261.846 42.6231 262.336 42.3281 262.767C42.0365 263.195 41.6304 263.531 41.1101 263.776C40.593 264.018 39.9948 264.139 39.3153 264.139ZM39.3153 263.045C39.776 263.045 40.1738 262.971 40.5085 262.822C40.8433 262.673 41.1018 262.462 41.2841 262.19C41.4664 261.919 41.5592 261.6 41.5625 261.236C41.5592 260.851 41.4598 260.512 41.2642 260.217C41.0687 259.922 40.8018 259.69 40.4638 259.521C40.129 259.352 39.7462 259.267 39.3153 259.267C38.8812 259.267 38.4934 259.352 38.152 259.521C37.8139 259.69 37.5471 259.922 37.3516 260.217C37.1593 260.512 37.0649 260.851 37.0682 261.236C37.0649 261.6 37.1527 261.919 37.3317 262.19C37.514 262.462 37.7741 262.673 38.1122 262.822C38.4503 262.971 38.8513 263.045 39.3153 263.045ZM39.3153 258.213C39.6799 258.213 40.0031 258.14 40.2848 257.994C40.5698 257.848 40.7936 257.645 40.956 257.383C41.1184 257.121 41.2012 256.814 41.2045 256.463C41.2012 256.118 41.12 255.818 40.9609 255.563C40.8018 255.305 40.5814 255.106 40.2997 254.967C40.018 254.824 39.6899 254.753 39.3153 254.753C38.9342 254.753 38.6011 254.824 38.3161 254.967C38.031 255.106 37.8106 255.305 37.6548 255.563C37.4991 255.818 37.4228 256.118 37.4261 256.463C37.4228 256.814 37.5007 257.121 37.6598 257.383C37.8222 257.645 38.0459 257.848 38.331 257.994C38.616 258.14 38.9441 258.213 39.3153 258.213ZM48.0616 264.139C47.644 264.133 47.2264 264.053 46.8088 263.901C46.3912 263.748 46.01 263.491 45.6653 263.13C45.3206 262.765 45.0439 262.273 44.835 261.653C44.6262 261.03 44.5218 260.248 44.5218 259.307C44.5218 258.405 44.6064 257.607 44.7754 256.911C44.9444 256.211 45.1897 255.623 45.5112 255.146C45.8327 254.665 46.2205 254.3 46.6745 254.052C47.1319 253.803 47.6473 253.679 48.2207 253.679C48.7908 253.679 49.2979 253.793 49.742 254.022C50.1895 254.247 50.554 254.562 50.8358 254.967C51.1175 255.371 51.2998 255.837 51.3826 256.364H50.1696C50.0569 255.906 49.8381 255.527 49.5133 255.225C49.1885 254.924 48.7576 254.773 48.2207 254.773C47.4319 254.773 46.8104 255.116 46.3564 255.802C45.9056 256.488 45.6786 257.451 45.6752 258.69H45.7548C45.9404 258.409 46.1608 258.168 46.416 257.969C46.6745 257.767 46.9596 257.612 47.2711 257.502C47.5827 257.393 47.9125 257.338 48.2605 257.338C48.8438 257.338 49.3774 257.484 49.8613 257.776C50.3452 258.064 50.733 258.463 51.0247 258.974C51.3163 259.481 51.4622 260.062 51.4622 260.719C51.4622 261.348 51.3213 261.925 51.0396 262.449C50.7579 262.969 50.3618 263.384 49.8514 263.692C49.3443 263.997 48.7477 264.146 48.0616 264.139ZM48.0616 263.045C48.4792 263.045 48.8538 262.941 49.1852 262.732C49.5199 262.523 49.7834 262.243 49.9757 261.892C50.1712 261.541 50.269 261.15 50.269 260.719C50.269 260.298 50.1745 259.915 49.9856 259.57C49.8 259.222 49.5431 258.946 49.215 258.74C48.8902 258.535 48.519 258.432 48.1014 258.432C47.7865 258.432 47.4932 258.495 47.2214 258.621C46.9496 258.743 46.711 258.912 46.5055 259.128C46.3033 259.343 46.1442 259.59 46.0282 259.869C45.9122 260.144 45.8542 260.434 45.8542 260.739C45.8542 261.143 45.9487 261.521 46.1376 261.872C46.3298 262.223 46.5917 262.507 46.9231 262.722C47.2579 262.938 47.6374 263.045 48.0616 263.045ZM56.7383 264.139C55.9892 264.139 55.3512 263.935 54.8242 263.528C54.2972 263.117 53.8945 262.522 53.6161 261.743C53.3377 260.961 53.1985 260.016 53.1985 258.909C53.1985 257.809 53.3377 256.869 53.6161 256.09C53.8978 255.308 54.3022 254.711 54.8292 254.3C55.3595 253.886 55.9959 253.679 56.7383 253.679C57.4807 253.679 58.1154 253.886 58.6424 254.3C59.1727 254.711 59.5771 255.308 59.8555 256.09C60.1372 256.869 60.2781 257.809 60.2781 258.909C60.2781 260.016 60.1388 260.961 59.8604 261.743C59.582 262.522 59.1793 263.117 58.6523 263.528C58.1254 263.935 57.4873 264.139 56.7383 264.139ZM56.7383 263.045C57.4807 263.045 58.0574 262.687 58.4684 261.972C58.8794 261.256 59.0849 260.235 59.0849 258.909C59.0849 258.027 58.9904 257.277 58.8015 256.657C58.6159 256.037 58.3474 255.565 57.9961 255.24C57.6481 254.915 57.2288 254.753 56.7383 254.753C56.0025 254.753 55.4274 255.116 55.0131 255.842C54.5988 256.564 54.3917 257.587 54.3917 258.909C54.3917 259.791 54.4845 260.54 54.6701 261.156C54.8557 261.773 55.1225 262.242 55.4705 262.563C55.8219 262.885 56.2444 263.045 56.7383 263.045ZM69.2269 264.159C68.511 264.159 67.8945 263.99 67.3775 263.652C66.8604 263.314 66.4627 262.848 66.1843 262.255C65.9059 261.662 65.7667 260.984 65.7667 260.222C65.7667 259.446 65.9092 258.762 66.1942 258.168C66.4826 257.572 66.8836 257.106 67.3974 256.771C67.9144 256.433 68.5176 256.264 69.207 256.264C69.744 256.264 70.2279 256.364 70.6587 256.562C71.0896 256.761 71.4426 257.04 71.7177 257.398C71.9928 257.756 72.1635 258.173 72.2298 258.651H71.0565C70.967 258.303 70.7681 257.994 70.4599 257.726C70.1549 257.454 69.744 257.318 69.2269 257.318C68.7695 257.318 68.3685 257.437 68.0238 257.676C67.6824 257.911 67.4156 258.245 67.2234 258.675C67.0344 259.103 66.94 259.605 66.94 260.182C66.94 260.772 67.0328 261.286 67.2184 261.723C67.4073 262.161 67.6725 262.5 68.0138 262.742C68.3585 262.984 68.7629 263.105 69.2269 263.105C69.5318 263.105 69.8086 263.052 70.0572 262.946C70.3058 262.84 70.5162 262.688 70.6886 262.489C70.8609 262.29 70.9835 262.051 71.0565 261.773H72.2298C72.1635 262.223 71.9994 262.629 71.7376 262.991C71.479 263.349 71.136 263.634 70.7085 263.846C70.2842 264.055 69.7904 264.159 69.2269 264.159ZM78.7575 260.878V256.364H79.9308V264H78.7575V262.707H78.6779C78.4989 263.095 78.2205 263.425 77.8427 263.697C77.4648 263.965 76.9876 264.099 76.4109 264.099C75.9336 264.099 75.5094 263.995 75.1381 263.786C74.7669 263.574 74.4753 263.256 74.2631 262.832C74.051 262.404 73.945 261.866 73.945 261.216V256.364H75.1183V261.136C75.1183 261.693 75.274 262.137 75.5856 262.469C75.9004 262.8 76.3015 262.966 76.7887 262.966C77.0804 262.966 77.377 262.891 77.6786 262.742C77.9835 262.593 78.2388 262.364 78.4442 262.056C78.6531 261.748 78.7575 261.355 78.7575 260.878ZM87.4888 258.074L86.4348 258.372C86.3685 258.196 86.2708 258.026 86.1415 257.86C86.0156 257.691 85.8432 257.552 85.6245 257.442C85.4057 257.333 85.1257 257.278 84.7843 257.278C84.3169 257.278 83.9275 257.386 83.6159 257.602C83.3077 257.814 83.1536 258.084 83.1536 258.412C83.1536 258.704 83.2596 258.934 83.4718 259.103C83.6839 259.272 84.0153 259.413 84.4661 259.526L85.5996 259.804C86.2824 259.97 86.7911 260.223 87.1259 260.565C87.4606 260.903 87.628 261.339 87.628 261.872C87.628 262.31 87.5021 262.701 87.2502 263.045C87.0016 263.39 86.6536 263.662 86.2061 263.861C85.7587 264.06 85.2383 264.159 84.6451 264.159C83.8662 264.159 83.2215 263.99 82.7111 263.652C82.2007 263.314 81.8775 262.82 81.7417 262.17L82.8553 261.892C82.9614 262.303 83.1619 262.611 83.4569 262.817C83.7551 263.022 84.1446 263.125 84.6252 263.125C85.1721 263.125 85.6062 263.009 85.9277 262.777C86.2525 262.542 86.415 262.26 86.415 261.932C86.415 261.667 86.3221 261.445 86.1365 261.266C85.9509 261.083 85.6659 260.947 85.2814 260.858L84.0087 260.56C83.3094 260.394 82.7956 260.137 82.4675 259.789C82.1427 259.438 81.9803 258.999 81.9803 258.472C81.9803 258.041 82.1013 257.66 82.3432 257.328C82.5885 256.997 82.9216 256.737 83.3425 256.548C83.7667 256.359 84.2473 256.264 84.7843 256.264C85.54 256.264 86.1332 256.43 86.5641 256.761C86.9983 257.093 87.3065 257.53 87.4888 258.074ZM90.5675 259.406V264H89.3942V253.818H90.5675V257.557H90.6669C90.8459 257.162 91.1143 256.849 91.4723 256.617C91.8336 256.382 92.3142 256.264 92.9141 256.264C93.4344 256.264 93.8902 256.369 94.2812 256.577C94.6723 256.783 94.9756 257.099 95.1911 257.527C95.4098 257.951 95.5192 258.491 95.5192 259.148V264H94.3459V259.227C94.3459 258.621 94.1884 258.152 93.8736 257.82C93.562 257.486 93.1295 257.318 92.576 257.318C92.1915 257.318 91.8468 257.399 91.5419 257.562C91.2403 257.724 91.0017 257.961 90.826 258.273C90.6536 258.584 90.5675 258.962 90.5675 259.406ZM97.6657 264V256.364H98.839V264H97.6657ZM98.2623 255.091C98.0336 255.091 97.8364 255.013 97.6706 254.857C97.5082 254.701 97.427 254.514 97.427 254.295C97.427 254.077 97.5082 253.889 97.6706 253.734C97.8364 253.578 98.0336 253.5 98.2623 253.5C98.4909 253.5 98.6865 253.578 98.8489 253.734C99.0146 253.889 99.0975 254.077 99.0975 254.295C99.0975 254.514 99.0146 254.701 98.8489 254.857C98.6865 255.013 98.4909 255.091 98.2623 255.091ZM104.09 264.159C103.401 264.159 102.796 263.995 102.276 263.667C101.759 263.339 101.354 262.88 101.062 262.29C100.774 261.7 100.63 261.01 100.63 260.222C100.63 259.426 100.774 258.732 101.062 258.138C101.354 257.545 101.759 257.085 102.276 256.756C102.796 256.428 103.401 256.264 104.09 256.264C104.78 256.264 105.383 256.428 105.9 256.756C106.42 257.085 106.825 257.545 107.113 258.138C107.405 258.732 107.55 259.426 107.55 260.222C107.55 261.01 107.405 261.7 107.113 262.29C106.825 262.88 106.42 263.339 105.9 263.667C105.383 263.995 104.78 264.159 104.09 264.159ZM104.09 263.105C104.614 263.105 105.045 262.971 105.383 262.702C105.721 262.434 105.971 262.081 106.134 261.643C106.296 261.206 106.377 260.732 106.377 260.222C106.377 259.711 106.296 259.236 106.134 258.795C105.971 258.354 105.721 257.998 105.383 257.726C105.045 257.454 104.614 257.318 104.09 257.318C103.567 257.318 103.136 257.454 102.798 257.726C102.46 257.998 102.209 258.354 102.047 258.795C101.884 259.236 101.803 259.711 101.803 260.222C101.803 260.732 101.884 261.206 102.047 261.643C102.209 262.081 102.46 262.434 102.798 262.702C103.136 262.971 103.567 263.105 104.09 263.105ZM110.515 259.406V264H109.341V256.364H110.475V257.557H110.574C110.753 257.169 111.025 256.857 111.39 256.622C111.754 256.384 112.225 256.264 112.802 256.264C113.319 256.264 113.771 256.37 114.159 256.582C114.547 256.791 114.848 257.109 115.064 257.537C115.279 257.961 115.387 258.498 115.387 259.148V264H114.214V259.227C114.214 258.627 114.058 258.16 113.746 257.825C113.435 257.487 113.007 257.318 112.464 257.318C112.089 257.318 111.754 257.399 111.459 257.562C111.168 257.724 110.937 257.961 110.768 258.273C110.599 258.584 110.515 258.962 110.515 259.406Z" fill="#202020"/>
<rect x="20" y="256.941" width="11.3418" height="4.94118" rx="2.47059" fill="#775DA6"/>
</g>
<g clip-path="url(#clip1_225_3457)">
<path d="M149.372 263L153.926 253.991V253.912H148.676V252.818H155.199V253.972L150.665 263H149.372ZM160.26 263.139C159.604 263.139 159.019 263.027 158.505 262.801C157.995 262.576 157.589 262.263 157.287 261.862C156.989 261.457 156.826 260.988 156.8 260.455H158.053C158.079 260.783 158.192 261.066 158.391 261.305C158.589 261.54 158.85 261.722 159.171 261.852C159.493 261.981 159.849 262.045 160.24 262.045C160.678 262.045 161.065 261.969 161.403 261.817C161.741 261.664 162.007 261.452 162.199 261.18C162.391 260.909 162.487 260.594 162.487 260.236C162.487 259.861 162.394 259.531 162.209 259.246C162.023 258.958 161.751 258.733 161.393 258.57C161.036 258.408 160.598 258.327 160.081 258.327H159.266V257.233H160.081C160.485 257.233 160.84 257.16 161.145 257.014C161.453 256.868 161.693 256.663 161.866 256.398C162.041 256.133 162.129 255.821 162.129 255.463C162.129 255.118 162.053 254.818 161.901 254.563C161.748 254.308 161.533 254.109 161.254 253.967C160.979 253.824 160.654 253.753 160.28 253.753C159.929 253.753 159.597 253.817 159.286 253.947C158.977 254.073 158.725 254.257 158.53 254.499C158.334 254.737 158.228 255.026 158.212 255.364H157.018C157.038 254.83 157.199 254.363 157.501 253.962C157.802 253.557 158.197 253.242 158.684 253.017C159.174 252.792 159.713 252.679 160.3 252.679C160.929 252.679 161.47 252.807 161.92 253.062C162.371 253.314 162.718 253.647 162.96 254.061C163.201 254.475 163.322 254.923 163.322 255.403C163.322 255.977 163.172 256.466 162.87 256.87C162.572 257.274 162.166 257.554 161.652 257.71V257.79C162.295 257.896 162.797 258.169 163.158 258.61C163.52 259.048 163.7 259.589 163.7 260.236C163.7 260.789 163.549 261.286 163.248 261.727C162.95 262.165 162.542 262.509 162.025 262.761C161.508 263.013 160.92 263.139 160.26 263.139ZM169.055 263.139C168.306 263.139 167.668 262.935 167.141 262.528C166.614 262.117 166.211 261.522 165.933 260.743C165.654 259.961 165.515 259.016 165.515 257.909C165.515 256.809 165.654 255.869 165.933 255.09C166.214 254.308 166.619 253.711 167.146 253.3C167.676 252.886 168.312 252.679 169.055 252.679C169.797 252.679 170.432 252.886 170.959 253.3C171.489 253.711 171.893 254.308 172.172 255.09C172.454 255.869 172.594 256.809 172.594 257.909C172.594 259.016 172.455 259.961 172.177 260.743C171.898 261.522 171.496 262.117 170.969 262.528C170.442 262.935 169.804 263.139 169.055 263.139ZM169.055 262.045C169.797 262.045 170.374 261.687 170.785 260.972C171.196 260.256 171.401 259.235 171.401 257.909C171.401 257.027 171.307 256.277 171.118 255.657C170.932 255.037 170.664 254.565 170.312 254.24C169.964 253.915 169.545 253.753 169.055 253.753C168.319 253.753 167.744 254.116 167.33 254.842C166.915 255.564 166.708 256.587 166.708 257.909C166.708 258.791 166.801 259.54 166.987 260.156C167.172 260.773 167.439 261.242 167.787 261.563C168.138 261.885 168.561 262.045 169.055 262.045ZM179.614 252.818V263H178.441V252.818H179.614ZM181.763 263V255.364H182.937V263H181.763ZM182.36 254.091C182.131 254.091 181.934 254.013 181.768 253.857C181.606 253.701 181.525 253.514 181.525 253.295C181.525 253.077 181.606 252.889 181.768 252.734C181.934 252.578 182.131 252.5 182.36 252.5C182.589 252.5 182.784 252.578 182.947 252.734C183.112 252.889 183.195 253.077 183.195 253.295C183.195 253.514 183.112 253.701 182.947 253.857C182.784 254.013 182.589 254.091 182.36 254.091ZM185.086 265.864V255.364H186.219V256.577H186.358C186.444 256.444 186.564 256.275 186.716 256.07C186.872 255.861 187.094 255.675 187.382 255.513C187.674 255.347 188.069 255.264 188.566 255.264C189.209 255.264 189.775 255.425 190.266 255.746C190.757 256.068 191.139 256.524 191.414 257.114C191.69 257.704 191.827 258.4 191.827 259.202C191.827 260.01 191.69 260.711 191.414 261.305C191.139 261.895 190.758 262.352 190.271 262.677C189.784 262.998 189.222 263.159 188.586 263.159C188.095 263.159 187.702 263.078 187.407 262.915C187.112 262.75 186.885 262.562 186.726 262.354C186.567 262.142 186.444 261.966 186.358 261.827H186.259V265.864H185.086ZM186.239 259.182C186.239 259.759 186.324 260.267 186.493 260.708C186.662 261.146 186.908 261.489 187.233 261.737C187.558 261.982 187.956 262.105 188.426 262.105C188.917 262.105 189.326 261.976 189.654 261.717C189.986 261.455 190.234 261.104 190.4 260.663C190.569 260.219 190.654 259.725 190.654 259.182C190.654 258.645 190.571 258.161 190.405 257.73C190.243 257.296 189.996 256.953 189.664 256.701C189.336 256.446 188.924 256.318 188.426 256.318C187.949 256.318 187.548 256.439 187.223 256.681C186.899 256.92 186.653 257.254 186.488 257.685C186.322 258.113 186.239 258.612 186.239 259.182ZM199.026 257.074L197.972 257.372C197.906 257.196 197.808 257.026 197.679 256.86C197.553 256.691 197.38 256.552 197.162 256.442C196.943 256.333 196.663 256.278 196.321 256.278C195.854 256.278 195.465 256.386 195.153 256.602C194.845 256.814 194.691 257.084 194.691 257.412C194.691 257.704 194.797 257.934 195.009 258.103C195.221 258.272 195.552 258.413 196.003 258.526L197.137 258.804C197.819 258.97 198.328 259.223 198.663 259.565C198.998 259.903 199.165 260.339 199.165 260.872C199.165 261.31 199.039 261.701 198.787 262.045C198.539 262.39 198.191 262.662 197.743 262.861C197.296 263.06 196.775 263.159 196.182 263.159C195.403 263.159 194.759 262.99 194.248 262.652C193.738 262.314 193.415 261.82 193.279 261.17L194.392 260.892C194.498 261.303 194.699 261.611 194.994 261.817C195.292 262.022 195.682 262.125 196.162 262.125C196.709 262.125 197.143 262.009 197.465 261.777C197.79 261.542 197.952 261.26 197.952 260.932C197.952 260.667 197.859 260.445 197.674 260.266C197.488 260.083 197.203 259.947 196.819 259.858L195.546 259.56C194.846 259.394 194.333 259.137 194.005 258.789C193.68 258.438 193.517 257.999 193.517 257.472C193.517 257.041 193.638 256.66 193.88 256.328C194.126 255.997 194.459 255.737 194.88 255.548C195.304 255.359 195.784 255.264 196.321 255.264C197.077 255.264 197.67 255.43 198.101 255.761C198.535 256.093 198.844 256.53 199.026 257.074ZM204.252 255.364V256.358H200.295V255.364H204.252ZM201.448 253.534H202.622V260.812C202.622 261.144 202.67 261.393 202.766 261.558C202.865 261.721 202.991 261.83 203.144 261.886C203.299 261.939 203.463 261.966 203.636 261.966C203.765 261.966 203.871 261.959 203.954 261.946C204.037 261.929 204.103 261.916 204.153 261.906L204.392 262.96C204.312 262.99 204.201 263.02 204.058 263.05C203.916 263.083 203.735 263.099 203.517 263.099C203.185 263.099 202.86 263.028 202.542 262.886C202.227 262.743 201.965 262.526 201.757 262.234C201.551 261.943 201.448 261.575 201.448 261.131V253.534ZM206.017 263V255.364H207.191V263H206.017ZM206.614 254.091C206.385 254.091 206.188 254.013 206.022 253.857C205.86 253.701 205.779 253.514 205.779 253.295C205.779 253.077 205.86 252.889 206.022 252.734C206.188 252.578 206.385 252.5 206.614 252.5C206.843 252.5 207.038 252.578 207.2 252.734C207.366 252.889 207.449 253.077 207.449 253.295C207.449 253.514 207.366 253.701 207.2 253.857C207.038 254.013 206.843 254.091 206.614 254.091ZM212.442 263.159C211.726 263.159 211.109 262.99 210.592 262.652C210.075 262.314 209.678 261.848 209.399 261.255C209.121 260.662 208.982 259.984 208.982 259.222C208.982 258.446 209.124 257.762 209.409 257.168C209.697 256.572 210.098 256.106 210.612 255.771C211.129 255.433 211.732 255.264 212.422 255.264C212.959 255.264 213.443 255.364 213.874 255.562C214.304 255.761 214.657 256.04 214.933 256.398C215.208 256.756 215.378 257.173 215.445 257.651H214.271C214.182 257.303 213.983 256.994 213.675 256.726C213.37 256.454 212.959 256.318 212.442 256.318C211.984 256.318 211.583 256.437 211.239 256.676C210.897 256.911 210.63 257.245 210.438 257.675C210.249 258.103 210.155 258.605 210.155 259.182C210.155 259.772 210.248 260.286 210.433 260.723C210.622 261.161 210.887 261.5 211.229 261.742C211.573 261.984 211.978 262.105 212.442 262.105C212.747 262.105 213.023 262.052 213.272 261.946C213.521 261.84 213.731 261.688 213.903 261.489C214.076 261.29 214.198 261.051 214.271 260.773H215.445C215.378 261.223 215.214 261.629 214.952 261.991C214.694 262.349 214.351 262.634 213.923 262.846C213.499 263.055 213.005 263.159 212.442 263.159ZM218.254 260.216L218.234 258.764H218.472L221.813 255.364H223.265L219.705 258.963H219.606L218.254 260.216ZM217.16 263V252.818H218.333V263H217.16ZM222.012 263L219.029 259.222L219.864 258.406L223.504 263H222.012Z" fill="#202020"/>
<rect x="124" y="257.941" width="10.2278" height="4.94118" rx="2.47059" fill="#FFB1B7"/>
</g>
<g clip-path="url(#clip2_225_3457)">
<path d="M248.133 262.652V261.757L251.494 258.078C251.888 257.648 252.213 257.273 252.468 256.955C252.724 256.633 252.912 256.332 253.035 256.05C253.161 255.765 253.224 255.467 253.224 255.155C253.224 254.797 253.138 254.487 252.965 254.225C252.796 253.964 252.564 253.761 252.269 253.619C251.974 253.476 251.643 253.405 251.275 253.405C250.884 253.405 250.543 253.486 250.251 253.649C249.963 253.808 249.739 254.032 249.58 254.32C249.424 254.608 249.346 254.946 249.346 255.334H248.173C248.173 254.738 248.31 254.214 248.585 253.763C248.861 253.312 249.235 252.961 249.709 252.709C250.186 252.457 250.722 252.331 251.315 252.331C251.911 252.331 252.44 252.457 252.901 252.709C253.362 252.961 253.723 253.301 253.985 253.728C254.246 254.156 254.377 254.632 254.377 255.155C254.377 255.53 254.309 255.896 254.174 256.254C254.041 256.609 253.809 257.005 253.478 257.442C253.149 257.876 252.694 258.407 252.11 259.033L249.823 261.479V261.559H254.556V262.652H248.133ZM260.05 262.792C259.394 262.792 258.809 262.679 258.295 262.453C257.785 262.228 257.379 261.915 257.077 261.514C256.779 261.109 256.616 260.641 256.59 260.107H257.843C257.869 260.435 257.982 260.718 258.181 260.957C258.38 261.192 258.64 261.375 258.961 261.504C259.283 261.633 259.639 261.698 260.03 261.698C260.468 261.698 260.855 261.622 261.193 261.469C261.532 261.317 261.797 261.105 261.989 260.833C262.181 260.561 262.277 260.246 262.277 259.888C262.277 259.514 262.184 259.184 261.999 258.899C261.813 258.61 261.541 258.385 261.184 258.223C260.826 258.06 260.388 257.979 259.871 257.979H259.056V256.885H259.871C260.275 256.885 260.63 256.812 260.935 256.667C261.243 256.521 261.483 256.315 261.656 256.05C261.831 255.785 261.919 255.473 261.919 255.115C261.919 254.771 261.843 254.471 261.691 254.216C261.538 253.96 261.323 253.761 261.044 253.619C260.769 253.476 260.444 253.405 260.07 253.405C259.719 253.405 259.387 253.47 259.076 253.599C258.767 253.725 258.515 253.909 258.32 254.151C258.124 254.39 258.018 254.678 258.002 255.016H256.809C256.828 254.482 256.989 254.015 257.291 253.614C257.592 253.21 257.987 252.895 258.474 252.669C258.965 252.444 259.503 252.331 260.09 252.331C260.719 252.331 261.26 252.459 261.71 252.714C262.161 252.966 262.508 253.299 262.75 253.713C262.992 254.128 263.112 254.575 263.112 255.056C263.112 255.629 262.962 256.118 262.66 256.522C262.362 256.927 261.956 257.207 261.442 257.363V257.442C262.085 257.548 262.587 257.822 262.948 258.262C263.31 258.7 263.49 259.242 263.49 259.888C263.49 260.442 263.34 260.939 263.038 261.38C262.74 261.817 262.332 262.162 261.815 262.414C261.298 262.666 260.71 262.792 260.05 262.792ZM265.285 260.564V259.55L269.759 252.471H270.495V254.042H269.998L266.617 259.391V259.471H272.643V260.564H265.285ZM270.078 262.652V260.256V259.784V252.471H271.251V262.652H270.078ZM283.873 256.726L282.819 257.025C282.752 256.849 282.655 256.678 282.525 256.512C282.399 256.343 282.227 256.204 282.008 256.095C281.79 255.985 281.509 255.931 281.168 255.931C280.701 255.931 280.311 256.038 280 256.254C279.691 256.466 279.537 256.736 279.537 257.064C279.537 257.356 279.643 257.586 279.856 257.755C280.068 257.924 280.399 258.065 280.85 258.178L281.983 258.456C282.666 258.622 283.175 258.876 283.51 259.217C283.844 259.555 284.012 259.991 284.012 260.525C284.012 260.962 283.886 261.353 283.634 261.698C283.385 262.042 283.037 262.314 282.59 262.513C282.142 262.712 281.622 262.811 281.029 262.811C280.25 262.811 279.605 262.642 279.095 262.304C278.584 261.966 278.261 261.472 278.125 260.823L279.239 260.544C279.345 260.955 279.546 261.264 279.841 261.469C280.139 261.675 280.528 261.777 281.009 261.777C281.556 261.777 281.99 261.661 282.312 261.429C282.636 261.194 282.799 260.912 282.799 260.584C282.799 260.319 282.706 260.097 282.52 259.918C282.335 259.736 282.05 259.6 281.665 259.51L280.392 259.212C279.693 259.046 279.179 258.789 278.851 258.441C278.526 258.09 278.364 257.651 278.364 257.124C278.364 256.693 278.485 256.312 278.727 255.98C278.972 255.649 279.305 255.389 279.726 255.2C280.151 255.011 280.631 254.917 281.168 254.917C281.924 254.917 282.517 255.082 282.948 255.414C283.382 255.745 283.69 256.183 283.873 256.726ZM285.778 265.516V255.016H286.911V256.229H287.051C287.137 256.096 287.256 255.927 287.409 255.722C287.564 255.513 287.786 255.328 288.075 255.165C288.367 254.999 288.761 254.917 289.258 254.917C289.901 254.917 290.468 255.077 290.958 255.399C291.449 255.72 291.832 256.176 292.107 256.766C292.382 257.356 292.519 258.052 292.519 258.854C292.519 259.663 292.382 260.364 292.107 260.957C291.832 261.547 291.451 262.004 290.963 262.329C290.476 262.651 289.914 262.811 289.278 262.811C288.787 262.811 288.395 262.73 288.1 262.568C287.805 262.402 287.578 262.215 287.419 262.006C287.259 261.794 287.137 261.618 287.051 261.479H286.951V265.516H285.778ZM286.931 258.834C286.931 259.411 287.016 259.92 287.185 260.36C287.354 260.798 287.601 261.141 287.926 261.39C288.251 261.635 288.648 261.757 289.119 261.757C289.609 261.757 290.019 261.628 290.347 261.37C290.678 261.108 290.927 260.757 291.093 260.316C291.262 259.872 291.346 259.378 291.346 258.834C291.346 258.297 291.263 257.813 291.098 257.382C290.935 256.948 290.688 256.605 290.357 256.353C290.029 256.098 289.616 255.971 289.119 255.971C288.642 255.971 288.241 256.092 287.916 256.333C287.591 256.572 287.346 256.907 287.18 257.338C287.014 257.765 286.931 258.264 286.931 258.834ZM296.556 262.831C296.072 262.831 295.633 262.74 295.239 262.558C294.844 262.372 294.531 262.105 294.299 261.757C294.067 261.406 293.951 260.982 293.951 260.485C293.951 260.047 294.037 259.693 294.21 259.421C294.382 259.146 294.612 258.93 294.901 258.775C295.189 258.619 295.507 258.503 295.855 258.426C296.207 258.347 296.56 258.284 296.914 258.238C297.378 258.178 297.755 258.133 298.043 258.103C298.335 258.07 298.547 258.016 298.679 257.939C298.815 257.863 298.883 257.73 298.883 257.542V257.502C298.883 257.011 298.749 256.63 298.48 256.358C298.215 256.087 297.813 255.951 297.272 255.951C296.712 255.951 296.273 256.073 295.955 256.319C295.637 256.564 295.413 256.826 295.284 257.104L294.17 256.706C294.369 256.242 294.634 255.881 294.965 255.623C295.3 255.361 295.665 255.178 296.059 255.076C296.457 254.97 296.848 254.917 297.233 254.917C297.478 254.917 297.759 254.946 298.078 255.006C298.399 255.062 298.709 255.18 299.007 255.359C299.309 255.538 299.559 255.808 299.758 256.169C299.957 256.531 300.056 257.015 300.056 257.621V262.652H298.883V261.618H298.823C298.744 261.784 298.611 261.961 298.426 262.15C298.24 262.339 297.993 262.5 297.685 262.632C297.377 262.765 297.001 262.831 296.556 262.831ZM296.735 261.777C297.199 261.777 297.59 261.686 297.909 261.504C298.23 261.322 298.472 261.086 298.634 260.798C298.8 260.51 298.883 260.206 298.883 259.888V258.814C298.833 258.874 298.724 258.929 298.555 258.978C298.389 259.025 298.197 259.066 297.978 259.103C297.763 259.136 297.552 259.166 297.347 259.192C297.145 259.215 296.981 259.235 296.855 259.252C296.55 259.292 296.265 259.356 296 259.446C295.738 259.532 295.526 259.663 295.363 259.838C295.204 260.011 295.125 260.246 295.125 260.544C295.125 260.952 295.275 261.26 295.577 261.469C295.882 261.675 296.268 261.777 296.735 261.777ZM302.198 262.652V255.016H303.331V256.209H303.431C303.59 255.801 303.847 255.485 304.201 255.26C304.556 255.031 304.982 254.917 305.479 254.917C305.983 254.917 306.402 255.031 306.737 255.26C307.075 255.485 307.339 255.801 307.527 256.209H307.607C307.803 255.815 308.096 255.502 308.487 255.27C308.878 255.034 309.347 254.917 309.894 254.917C310.577 254.917 311.135 255.13 311.569 255.558C312.004 255.982 312.221 256.643 312.221 257.542V262.652H311.047V257.542C311.047 256.978 310.893 256.575 310.585 256.333C310.277 256.092 309.914 255.971 309.496 255.971C308.959 255.971 308.543 256.133 308.248 256.458C307.953 256.779 307.806 257.187 307.806 257.681V262.652H306.613V257.422C306.613 256.988 306.472 256.638 306.19 256.373C305.908 256.105 305.545 255.971 305.101 255.971C304.796 255.971 304.511 256.052 304.246 256.214C303.984 256.377 303.772 256.602 303.61 256.89C303.451 257.175 303.371 257.505 303.371 257.88V262.652H302.198Z" fill="#202020"/>
<rect x="237.079" y="255.418" width="6.91008" height="4.7665" rx="2.38325" fill="#70B6C1"/>
</g>
<mask id="mask0_225_3457" style="mask-type:luminance" maskUnits="userSpaceOnUse" x="88" y="58" width="171" height="169">
<ellipse cx="173.494" cy="142.754" rx="85" ry="83.8109" fill="white"/>
</mask>
<g mask="url(#mask0_225_3457)">
<ellipse cx="173.494" cy="142.754" rx="85" ry="83.8109" fill="#70B6C1"/>
<path fill-rule="evenodd" clip-rule="evenodd" d="M173.477 53.3824V142.754L200.467 226.565L241.022 213.27L270.206 138.385L248.508 67.6819L190.564 52.6211L173.477 53.3824Z" fill="#775DA6" stroke="white" stroke-width="2"/>
<path fill-rule="evenodd" clip-rule="evenodd" d="M82.8302 98.7109L173.47 142.754L200.461 226.565L131.602 233.823L79.2256 170.956L82.8302 98.7109Z" fill="#FFB1B7" stroke="white" stroke-width="2"/>
</g>
<g clip-path="url(#clip3_225_3457)">
<path d="M137.397 96.5096V106.691H135.552V98.3043H135.493L133.111 99.8256V98.1353L135.642 96.5096H137.397ZM143.745 106.885C142.927 106.885 142.224 106.678 141.638 106.264C141.054 105.846 140.605 105.245 140.29 104.459C139.979 103.67 139.823 102.721 139.823 101.61C139.826 100.5 139.984 99.5555 140.295 98.7766C140.61 97.9944 141.059 97.3978 141.642 96.9869C142.229 96.5759 142.93 96.3704 143.745 96.3704C144.561 96.3704 145.262 96.5759 145.848 96.9869C146.435 97.3978 146.884 97.9944 147.196 98.7766C147.511 99.5588 147.668 100.503 147.668 101.61C147.668 102.724 147.511 103.675 147.196 104.464C146.884 105.25 146.435 105.85 145.848 106.264C145.265 106.678 144.564 106.885 143.745 106.885ZM143.745 105.329C144.382 105.329 144.884 105.016 145.252 104.39C145.623 103.76 145.809 102.833 145.809 101.61C145.809 100.802 145.724 100.122 145.555 99.5721C145.386 99.0219 145.147 98.6076 144.839 98.3292C144.531 98.0475 144.166 97.9066 143.745 97.9066C143.112 97.9066 142.612 98.2215 142.244 98.8512C141.876 99.4776 141.691 100.397 141.687 101.61C141.684 102.422 141.765 103.105 141.931 103.659C142.1 104.212 142.339 104.63 142.647 104.912C142.955 105.19 143.321 105.329 143.745 105.329ZM154.764 104.782V104.245C154.764 103.851 154.847 103.488 155.012 103.157C155.181 102.825 155.427 102.558 155.748 102.356C156.07 102.154 156.459 102.053 156.916 102.053C157.387 102.053 157.782 102.154 158.1 102.356C158.418 102.555 158.658 102.82 158.821 103.152C158.986 103.483 159.069 103.848 159.069 104.245V104.782C159.069 105.177 158.986 105.54 158.821 105.871C158.655 106.203 158.411 106.469 158.09 106.672C157.772 106.874 157.38 106.975 156.916 106.975C156.452 106.975 156.06 106.874 155.738 106.672C155.417 106.469 155.173 106.203 155.007 105.871C154.845 105.54 154.764 105.177 154.764 104.782ZM156.061 104.245V104.782C156.061 105.044 156.124 105.284 156.25 105.503C156.376 105.722 156.598 105.831 156.916 105.831C157.238 105.831 157.458 105.724 157.578 105.508C157.7 105.289 157.762 105.047 157.762 104.782V104.245C157.762 103.98 157.704 103.738 157.588 103.52C157.472 103.297 157.248 103.186 156.916 103.186C156.605 103.186 156.384 103.297 156.255 103.52C156.126 103.738 156.061 103.98 156.061 104.245ZM149.588 98.9556V98.4187C149.588 98.021 149.673 97.6564 149.842 97.3249C150.011 96.9935 150.256 96.7283 150.578 96.5295C150.899 96.3273 151.289 96.2262 151.746 96.2262C152.213 96.2262 152.606 96.3273 152.924 96.5295C153.246 96.7283 153.488 96.9935 153.65 97.3249C153.813 97.6564 153.894 98.021 153.894 98.4187V98.9556C153.894 99.3533 153.811 99.7179 153.645 100.049C153.483 100.377 153.241 100.641 152.919 100.84C152.598 101.039 152.207 101.138 151.746 101.138C151.279 101.138 150.884 101.039 150.563 100.84C150.245 100.641 150.003 100.376 149.837 100.044C149.671 99.7129 149.588 99.35 149.588 98.9556ZM150.896 98.4187V98.9556C150.896 99.2208 150.957 99.4627 151.08 99.6815C151.206 99.8969 151.428 100.005 151.746 100.005C152.064 100.005 152.283 99.8969 152.402 99.6815C152.525 99.4627 152.586 99.2208 152.586 98.9556V98.4187C152.586 98.1535 152.528 97.9116 152.412 97.6928C152.296 97.4708 152.074 97.3597 151.746 97.3597C151.431 97.3597 151.211 97.4708 151.085 97.6928C150.959 97.9149 150.896 98.1568 150.896 98.4187ZM150.155 106.691L157.155 96.5096H158.398L151.398 106.691H150.155Z" fill="white"/>
</g>
<g clip-path="url(#clip4_225_3457)">
<path d="M198.194 139.757V138.291L202.514 131.465H203.737V133.553H202.991L200.083 138.161V138.241H206.113V139.757H198.194ZM203.051 141.646V139.31L203.071 138.654V131.465H204.811V141.646H203.051ZM211.241 141.786C210.579 141.786 209.985 141.661 209.462 141.413C208.938 141.161 208.522 140.816 208.214 140.379C207.909 139.941 207.746 139.441 207.727 138.877H209.516C209.549 139.295 209.73 139.636 210.058 139.901C210.386 140.163 210.781 140.294 211.241 140.294C211.603 140.294 211.924 140.211 212.206 140.046C212.488 139.88 212.71 139.65 212.872 139.355C213.035 139.06 213.114 138.723 213.111 138.345C213.114 137.961 213.033 137.619 212.867 137.321C212.701 137.023 212.474 136.789 212.186 136.62C211.898 136.448 211.566 136.362 211.192 136.362C210.887 136.358 210.587 136.415 210.292 136.531C209.997 136.647 209.763 136.799 209.591 136.988L207.925 136.715L208.457 131.465H214.364V133.006H209.984L209.69 135.705H209.75C209.939 135.483 210.206 135.299 210.55 135.154C210.895 135.004 211.273 134.93 211.684 134.93C212.3 134.93 212.851 135.076 213.335 135.367C213.818 135.656 214.2 136.053 214.478 136.561C214.756 137.068 214.896 137.648 214.896 138.301C214.896 138.973 214.74 139.573 214.428 140.1C214.12 140.624 213.691 141.037 213.141 141.338C212.594 141.637 211.961 141.786 211.241 141.786ZM222.005 139.737V139.2C222.005 138.806 222.088 138.443 222.254 138.112C222.423 137.78 222.668 137.513 222.989 137.311C223.311 137.109 223.7 137.008 224.158 137.008C224.628 137.008 225.023 137.109 225.341 137.311C225.659 137.51 225.899 137.775 226.062 138.107C226.228 138.438 226.31 138.803 226.31 139.2V139.737C226.31 140.132 226.228 140.495 226.062 140.826C225.896 141.158 225.652 141.424 225.331 141.627C225.013 141.829 224.622 141.93 224.158 141.93C223.694 141.93 223.301 141.829 222.979 141.627C222.658 141.424 222.414 141.158 222.249 140.826C222.086 140.495 222.005 140.132 222.005 139.737ZM223.303 139.2V139.737C223.303 139.999 223.366 140.24 223.491 140.458C223.617 140.677 223.839 140.786 224.158 140.786C224.479 140.786 224.7 140.679 224.819 140.463C224.942 140.244 225.003 140.003 225.003 139.737V139.2C225.003 138.935 224.945 138.693 224.829 138.475C224.713 138.253 224.489 138.142 224.158 138.142C223.846 138.142 223.626 138.253 223.496 138.475C223.367 138.693 223.303 138.935 223.303 139.2ZM216.83 133.911V133.374C216.83 132.976 216.914 132.611 217.083 132.28C217.252 131.949 217.497 131.683 217.819 131.485C218.14 131.282 218.53 131.181 218.987 131.181C219.455 131.181 219.847 131.282 220.165 131.485C220.487 131.683 220.729 131.949 220.891 132.28C221.054 132.611 221.135 132.976 221.135 133.374V133.911C221.135 134.308 221.052 134.673 220.886 135.004C220.724 135.333 220.482 135.596 220.161 135.795C219.839 135.994 219.448 136.093 218.987 136.093C218.52 136.093 218.125 135.994 217.804 135.795C217.486 135.596 217.244 135.331 217.078 134.999C216.912 134.668 216.83 134.305 216.83 133.911ZM218.137 133.374V133.911C218.137 134.176 218.198 134.418 218.321 134.637C218.447 134.852 218.669 134.96 218.987 134.96C219.305 134.96 219.524 134.852 219.643 134.637C219.766 134.418 219.827 134.176 219.827 133.911V133.374C219.827 133.109 219.769 132.867 219.653 132.648C219.537 132.426 219.315 132.315 218.987 132.315C218.672 132.315 218.452 132.426 218.326 132.648C218.2 132.87 218.137 133.112 218.137 133.374ZM217.396 141.646L224.396 131.465H225.639L218.639 141.646H217.396Z" fill="white"/>
</g>
<g clip-path="url(#clip5_225_3457)">
<path d="M123.264 173.123V171.656L127.584 164.83H128.807V166.918H128.061L125.153 171.527V171.606H131.184V173.123H123.264ZM128.121 175.012V172.675L128.141 172.019V164.83H129.881V175.012H128.121ZM136.312 175.151C135.649 175.151 135.056 175.027 134.532 174.778C134.008 174.526 133.592 174.181 133.284 173.744C132.979 173.306 132.817 172.806 132.797 172.243H134.587C134.62 172.66 134.8 173.002 135.129 173.267C135.457 173.529 135.851 173.659 136.312 173.659C136.673 173.659 136.995 173.577 137.276 173.411C137.558 173.245 137.78 173.015 137.942 172.72C138.105 172.425 138.184 172.088 138.181 171.711C138.184 171.326 138.103 170.985 137.938 170.686C137.772 170.388 137.545 170.154 137.256 169.985C136.968 169.813 136.637 169.727 136.262 169.727C135.957 169.724 135.657 169.78 135.362 169.896C135.067 170.012 134.834 170.164 134.661 170.353L132.996 170.08L133.528 164.83H139.434V166.371H135.054L134.761 169.071H134.82C135.009 168.849 135.276 168.665 135.621 168.519C135.965 168.37 136.343 168.295 136.754 168.295C137.371 168.295 137.921 168.441 138.405 168.733C138.889 169.021 139.27 169.419 139.548 169.926C139.827 170.433 139.966 171.013 139.966 171.666C139.966 172.339 139.81 172.939 139.499 173.466C139.19 173.989 138.761 174.402 138.211 174.703C137.664 175.002 137.031 175.151 136.312 175.151ZM147.075 173.103V172.566C147.075 172.171 147.158 171.808 147.324 171.477C147.493 171.145 147.738 170.879 148.06 170.676C148.381 170.474 148.771 170.373 149.228 170.373C149.699 170.373 150.093 170.474 150.411 170.676C150.729 170.875 150.97 171.141 151.132 171.472C151.298 171.803 151.381 172.168 151.381 172.566V173.103C151.381 173.497 151.298 173.86 151.132 174.191C150.966 174.523 150.723 174.79 150.401 174.992C150.083 175.194 149.692 175.295 149.228 175.295C148.764 175.295 148.371 175.194 148.05 174.992C147.728 174.79 147.485 174.523 147.319 174.191C147.156 173.86 147.075 173.497 147.075 173.103ZM148.373 172.566V173.103C148.373 173.364 148.436 173.605 148.562 173.824C148.688 174.042 148.91 174.152 149.228 174.152C149.549 174.152 149.77 174.044 149.889 173.828C150.012 173.61 150.073 173.368 150.073 173.103V172.566C150.073 172.301 150.015 172.059 149.899 171.84C149.783 171.618 149.559 171.507 149.228 171.507C148.916 171.507 148.696 171.618 148.567 171.84C148.438 172.059 148.373 172.301 148.373 172.566ZM141.9 167.276V166.739C141.9 166.341 141.984 165.977 142.153 165.645C142.322 165.314 142.568 165.049 142.889 164.85C143.211 164.648 143.6 164.547 144.058 164.547C144.525 164.547 144.918 164.648 145.236 164.85C145.557 165.049 145.799 165.314 145.962 165.645C146.124 165.977 146.205 166.341 146.205 166.739V167.276C146.205 167.674 146.122 168.038 145.957 168.37C145.794 168.698 145.552 168.961 145.231 169.16C144.909 169.359 144.518 169.458 144.058 169.458C143.59 169.458 143.196 169.359 142.874 169.16C142.556 168.961 142.314 168.696 142.148 168.365C141.983 168.033 141.9 167.67 141.9 167.276ZM143.207 166.739V167.276C143.207 167.541 143.269 167.783 143.391 168.002C143.517 168.217 143.739 168.325 144.058 168.325C144.376 168.325 144.594 168.217 144.714 168.002C144.836 167.783 144.898 167.541 144.898 167.276V166.739C144.898 166.474 144.84 166.232 144.724 166.013C144.608 165.791 144.386 165.68 144.058 165.68C143.743 165.68 143.522 165.791 143.396 166.013C143.27 166.235 143.207 166.477 143.207 166.739ZM142.467 175.012L149.467 164.83H150.71L143.71 175.012H142.467Z" fill="white"/>
</g>
<path fill-rule="evenodd" clip-rule="evenodd" d="M303.588 8.3554C304.538 8.3554 305.316 7.64042 305.316 6.76657C305.316 5.89271 304.538 5.17773 303.588 5.17773C302.638 5.17773 301.861 5.89271 301.861 6.76657C301.861 7.64042 302.638 8.3554 303.588 8.3554ZM303.588 9.94423C302.638 9.94423 301.86 10.6592 301.86 11.5331C301.86 12.4069 302.638 13.1219 303.588 13.1219C304.538 13.1219 305.315 12.4069 305.315 11.5331C305.315 10.6592 304.538 9.94423 303.588 9.94423ZM303.588 14.7107C302.638 14.7107 301.86 15.4257 301.86 16.2996C301.86 17.1734 302.638 17.8884 303.588 17.8884C304.538 17.8884 305.315 17.1734 305.315 16.2996C305.315 15.4257 304.538 14.7107 303.588 14.7107Z" fill="#898989"/>
<path d="M53.4673 31.2108H54.9389L58.3991 39.6625H58.5185L61.9787 31.2108H63.4503V41.3926H62.2969V33.6568H62.1974L59.0156 41.3926H57.902L54.7202 33.6568H54.6207V41.3926H53.4673V31.2108ZM68.0105 41.5716C67.5266 41.5716 67.0874 41.4804 66.693 41.2981C66.2986 41.1125 65.9854 40.8457 65.7534 40.4977C65.5214 40.1464 65.4054 39.7221 65.4054 39.225C65.4054 38.7875 65.4915 38.4328 65.6639 38.161C65.8362 37.8859 66.0666 37.6705 66.3549 37.5147C66.6433 37.359 66.9615 37.243 67.3095 37.1667C67.6608 37.0872 68.0138 37.0242 68.3684 36.9778C68.8324 36.9181 69.2086 36.8734 69.497 36.8436C69.7886 36.8104 70.0008 36.7557 70.1333 36.6795C70.2692 36.6033 70.3372 36.4707 70.3372 36.2818V36.242C70.3372 35.7515 70.2029 35.3703 69.9345 35.0985C69.6693 34.8268 69.2666 34.6909 68.7264 34.6909C68.1663 34.6909 67.7271 34.8135 67.4089 35.0588C67.0907 35.304 66.867 35.5659 66.7377 35.8443L65.6241 35.4466C65.823 34.9825 66.0881 34.6213 66.4196 34.3627C66.7543 34.1009 67.1189 33.9186 67.5133 33.8159C67.911 33.7098 68.3021 33.6568 68.6866 33.6568C68.9319 33.6568 69.2136 33.6866 69.5318 33.7463C69.8533 33.8026 70.1632 33.9203 70.4615 34.0993C70.7631 34.2782 71.0133 34.5484 71.2122 34.9096C71.411 35.2709 71.5105 35.7548 71.5105 36.3613V41.3926H70.3372V40.3585H70.2775C70.198 40.5242 70.0654 40.7015 69.8798 40.8904C69.6942 41.0794 69.4473 41.2401 69.139 41.3727C68.8308 41.5053 68.4546 41.5716 68.0105 41.5716ZM68.1895 40.5176C68.6535 40.5176 69.0446 40.4264 69.3627 40.2441C69.6842 40.0618 69.9262 39.8265 70.0886 39.5382C70.2543 39.2498 70.3372 38.9466 70.3372 38.6284V37.5545C70.2875 37.6142 70.1781 37.6689 70.0091 37.7186C69.8433 37.765 69.6511 37.8064 69.4324 37.8429C69.2169 37.876 69.0065 37.9058 68.801 37.9324C68.5988 37.9556 68.4347 37.9754 68.3088 37.992C68.0038 38.0318 67.7188 38.0964 67.4537 38.1859C67.1918 38.2721 66.9797 38.403 66.8173 38.5787C66.6582 38.751 66.5787 38.9863 66.5787 39.2846C66.5787 39.6923 66.7295 40.0005 67.0311 40.2093C67.336 40.4148 67.7221 40.5176 68.1895 40.5176ZM73.652 41.3926V33.7562H74.7855V34.9096H74.8651C75.0043 34.5318 75.2562 34.2252 75.6207 33.9899C75.9853 33.7546 76.3963 33.6369 76.8537 33.6369C76.9399 33.6369 77.0476 33.6386 77.1768 33.6419C77.3061 33.6452 77.4039 33.6502 77.4702 33.6568V34.85C77.4304 34.84 77.3393 34.8251 77.1967 34.8052C77.0575 34.782 76.91 34.7704 76.7543 34.7704C76.383 34.7704 76.0516 34.8483 75.7599 35.0041C75.4716 35.1565 75.2429 35.3687 75.0739 35.6404C74.9081 35.9089 74.8253 36.2155 74.8253 36.5602V41.3926H73.652ZM81.7308 41.5517C81.0149 41.5517 80.3984 41.3826 79.8814 41.0446C79.3643 40.7065 78.9666 40.2408 78.6882 39.6475C78.4098 39.0543 78.2706 38.3765 78.2706 37.6142C78.2706 36.8386 78.4131 36.1542 78.6982 35.5609C78.9865 34.9643 79.3875 34.4986 79.9013 34.1639C80.4183 33.8258 81.0215 33.6568 81.7109 33.6568C82.2479 33.6568 82.7318 33.7562 83.1626 33.9551C83.5935 34.1539 83.9465 34.4324 84.2216 34.7903C84.4967 35.1483 84.6674 35.5659 84.7337 36.0431H83.5604C83.4709 35.6951 83.272 35.3869 82.9638 35.1184C82.6589 34.8466 82.2479 34.7108 81.7308 34.7108C81.2734 34.7108 80.8724 34.8301 80.5277 35.0687C80.1863 35.304 79.9195 35.6371 79.7273 36.068C79.5384 36.4956 79.4439 36.9977 79.4439 37.5744C79.4439 38.1644 79.5367 38.6781 79.7223 39.1156C79.9112 39.5531 80.1764 39.8928 80.5178 40.1348C80.8625 40.3767 81.2668 40.4977 81.7308 40.4977C82.0357 40.4977 82.3125 40.4447 82.5611 40.3386C82.8097 40.2325 83.0201 40.0801 83.1925 39.8812C83.3648 39.6824 83.4875 39.4437 83.5604 39.1653H84.7337C84.6674 39.6161 84.5033 40.0221 84.2415 40.3833C83.983 40.7413 83.6399 41.0263 83.2124 41.2385C82.7881 41.4473 82.2943 41.5517 81.7308 41.5517ZM87.6222 36.7988V41.3926H86.4489V31.2108H87.6222V34.9494H87.7216C87.9006 34.555 88.169 34.2418 88.527 34.0098C88.8883 33.7744 89.3688 33.6568 89.9688 33.6568C90.4891 33.6568 90.9448 33.7612 91.3359 33.97C91.727 34.1755 92.0303 34.492 92.2457 34.9196C92.4645 35.3438 92.5739 35.8841 92.5739 36.5403V41.3926H91.4006V36.6199C91.4006 36.0133 91.2431 35.5443 90.9283 35.2129C90.6167 34.8781 90.1842 34.7108 89.6307 34.7108C89.2462 34.7108 88.9015 34.792 88.5966 34.9544C88.295 35.1168 88.0563 35.3538 87.8807 35.6653C87.7083 35.9769 87.6222 36.3547 87.6222 36.7988ZM53.2884 58.3926V57.4977L56.6491 53.8187C57.0436 53.3878 57.3684 53.0133 57.6236 52.6951C57.8788 52.3736 58.0677 52.072 58.1903 51.7903C58.3163 51.5053 58.3793 51.207 58.3793 50.8954C58.3793 50.5375 58.2931 50.2276 58.1207 49.9657C57.9517 49.7039 57.7197 49.5017 57.4247 49.3592C57.1297 49.2167 56.7983 49.1454 56.4304 49.1454C56.0393 49.1454 55.6979 49.2266 55.4062 49.389C55.1179 49.5481 54.8942 49.7718 54.7351 50.0602C54.5793 50.3485 54.5014 50.6866 54.5014 51.0744H53.3281C53.3281 50.4778 53.4657 49.9541 53.7408 49.5034C54.0159 49.0526 54.3904 48.7013 54.8643 48.4494C55.3416 48.1975 55.8769 48.0716 56.4702 48.0716C57.0668 48.0716 57.5954 48.1975 58.0561 48.4494C58.5168 48.7013 58.8781 49.041 59.1399 49.4686C59.4018 49.8961 59.5327 50.3717 59.5327 50.8954C59.5327 51.2699 59.4647 51.6362 59.3288 51.9941C59.1963 52.3488 58.9643 52.7449 58.6328 53.1824C58.3047 53.6165 57.849 54.1468 57.2656 54.7733L54.9787 57.2193V57.2988H59.7116V58.3926H53.2884ZM65.0859 58.5318C64.3369 58.5318 63.6989 58.3279 63.1719 57.9203C62.6449 57.5093 62.2422 56.9144 61.9638 56.1355C61.6854 55.3533 61.5462 54.4087 61.5462 53.3017C61.5462 52.2013 61.6854 51.2617 61.9638 50.4828C62.2455 49.7006 62.6499 49.104 63.1768 48.693C63.7071 48.2787 64.3435 48.0716 65.0859 48.0716C65.8284 48.0716 66.4631 48.2787 66.9901 48.693C67.5204 49.104 67.9247 49.7006 68.2031 50.4828C68.4848 51.2617 68.6257 52.2013 68.6257 53.3017C68.6257 54.4087 68.4865 55.3533 68.2081 56.1355C67.9297 56.9144 67.527 57.5093 67 57.9203C66.473 58.3279 65.835 58.5318 65.0859 58.5318ZM65.0859 57.438C65.8284 57.438 66.4051 57.0801 66.8161 56.3642C67.227 55.6483 67.4325 54.6274 67.4325 53.3017C67.4325 52.42 67.3381 51.6693 67.1491 51.0495C66.9635 50.4297 66.6951 49.9574 66.3438 49.6326C65.9957 49.3078 65.5765 49.1454 65.0859 49.1454C64.3501 49.1454 63.7751 49.5083 63.3608 50.2342C62.9465 50.9567 62.7393 51.9792 62.7393 53.3017C62.7393 54.1833 62.8321 54.9324 63.0178 55.5488C63.2034 56.1653 63.4702 56.6343 63.8182 56.9558C64.1695 57.2773 64.5921 57.438 65.0859 57.438ZM70.5149 58.3926V57.4977L73.8757 53.8187C74.2701 53.3878 74.5949 53.0133 74.8501 52.6951C75.1054 52.3736 75.2943 52.072 75.4169 51.7903C75.5429 51.5053 75.6058 51.207 75.6058 50.8954C75.6058 50.5375 75.5196 50.2276 75.3473 49.9657C75.1783 49.7039 74.9463 49.5017 74.6513 49.3592C74.3563 49.2167 74.0249 49.1454 73.657 49.1454C73.2659 49.1454 72.9245 49.2266 72.6328 49.389C72.3445 49.5481 72.1207 49.7718 71.9616 50.0602C71.8059 50.3485 71.728 50.6866 71.728 51.0744H70.5547C70.5547 50.4778 70.6922 49.9541 70.9673 49.5034C71.2424 49.0526 71.617 48.7013 72.0909 48.4494C72.5682 48.1975 73.1035 48.0716 73.6967 48.0716C74.2933 48.0716 74.822 48.1975 75.2827 48.4494C75.7434 48.7013 76.1046 49.041 76.3665 49.4686C76.6283 49.8961 76.7592 50.3717 76.7592 50.8954C76.7592 51.2699 76.6913 51.6362 76.5554 51.9941C76.4228 52.3488 76.1908 52.7449 75.8594 53.1824C75.5312 53.6165 75.0755 54.1468 74.4922 54.7733L72.2053 57.2193V57.2988H76.9382V58.3926H70.5149ZM82.3125 58.5318C81.5634 58.5318 80.9254 58.3279 80.3984 57.9203C79.8714 57.5093 79.4688 56.9144 79.1903 56.1355C78.9119 55.3533 78.7727 54.4087 78.7727 53.3017C78.7727 52.2013 78.9119 51.2617 79.1903 50.4828C79.4721 49.7006 79.8764 49.104 80.4034 48.693C80.9337 48.2787 81.5701 48.0716 82.3125 48.0716C83.0549 48.0716 83.6896 48.2787 84.2166 48.693C84.7469 49.104 85.1513 49.7006 85.4297 50.4828C85.7114 51.2617 85.8523 52.2013 85.8523 53.3017C85.8523 54.4087 85.7131 55.3533 85.4347 56.1355C85.1562 56.9144 84.7536 57.5093 84.2266 57.9203C83.6996 58.3279 83.0616 58.5318 82.3125 58.5318ZM82.3125 57.438C83.0549 57.438 83.6316 57.0801 84.0426 56.3642C84.4536 55.6483 84.6591 54.6274 84.6591 53.3017C84.6591 52.42 84.5646 51.6693 84.3757 51.0495C84.1901 50.4297 83.9216 49.9574 83.5703 49.6326C83.2223 49.3078 82.803 49.1454 82.3125 49.1454C81.5767 49.1454 81.0017 49.5083 80.5874 50.2342C80.1731 50.9567 79.9659 51.9792 79.9659 53.3017C79.9659 54.1833 80.0587 54.9324 80.2443 55.5488C80.4299 56.1653 80.6967 56.6343 81.0447 56.9558C81.3961 57.2773 81.8187 57.438 82.3125 57.438Z" fill="#898989"/>
<path d="M53.7216 25V7.54545H60.267C61.608 7.54545 62.733 7.77841 63.642 8.24432C64.5568 8.71023 65.2472 9.36364 65.7131 10.2045C66.1847 11.0398 66.4205 12.0142 66.4205 13.1278C66.4205 14.2472 66.1818 15.2187 65.7045 16.0426C65.233 16.8608 64.5369 17.4943 63.6165 17.9432C62.696 18.3864 61.5653 18.608 60.2244 18.608H55.5625V15.983H59.7983C60.5824 15.983 61.2244 15.875 61.7244 15.6591C62.2244 15.4375 62.5938 15.1165 62.8324 14.696C63.0767 14.2699 63.1989 13.7472 63.1989 13.1278C63.1989 12.5085 63.0767 11.9801 62.8324 11.5426C62.5881 11.0994 62.2159 10.7642 61.7159 10.5369C61.2159 10.304 60.571 10.1875 59.7812 10.1875H56.8835V25H53.7216ZM62.7386 17.0909L67.0597 25H63.5312L59.2869 17.0909H62.7386ZM74.8026 25.2557C73.4901 25.2557 72.3565 24.983 71.402 24.4375C70.4531 23.8864 69.723 23.108 69.2116 22.1023C68.7003 21.0909 68.4446 19.9006 68.4446 18.5312C68.4446 17.1847 68.7003 16.0028 69.2116 14.9858C69.7287 13.9631 70.4503 13.1676 71.3764 12.5994C72.3026 12.0256 73.3906 11.7386 74.6406 11.7386C75.4474 11.7386 76.2088 11.8693 76.9247 12.1307C77.6463 12.3864 78.2827 12.7841 78.8338 13.3239C79.3906 13.8636 79.8281 14.5511 80.1463 15.3864C80.4645 16.2159 80.6236 17.2045 80.6236 18.3523V19.2983H69.8935V17.2188H77.6662C77.6605 16.6278 77.5327 16.1023 77.2827 15.642C77.0327 15.1761 76.6832 14.8097 76.2344 14.5426C75.7912 14.2756 75.2741 14.142 74.6832 14.142C74.0526 14.142 73.4986 14.2955 73.0213 14.6023C72.544 14.9034 72.1719 15.3011 71.9048 15.7955C71.6435 16.2841 71.5099 16.821 71.5043 17.4062V19.2216C71.5043 19.983 71.6435 20.6364 71.9219 21.1818C72.2003 21.7216 72.5895 22.1364 73.0895 22.4261C73.5895 22.7102 74.1747 22.8523 74.8452 22.8523C75.294 22.8523 75.7003 22.7898 76.0639 22.6648C76.4276 22.5341 76.7429 22.3438 77.0099 22.0938C77.277 21.8438 77.4787 21.5341 77.6151 21.1648L80.4957 21.4886C80.3139 22.25 79.9673 22.9148 79.456 23.483C78.9503 24.0455 78.3026 24.483 77.5128 24.7955C76.723 25.1023 75.8196 25.2557 74.8026 25.2557ZM94.5518 11.9091L89.8899 25H86.4808L81.8189 11.9091H85.1087L88.1172 21.6335H88.2536L91.2706 11.9091H94.5518ZM102.037 25.2557C100.724 25.2557 99.5909 24.983 98.6364 24.4375C97.6875 23.8864 96.9574 23.108 96.446 22.1023C95.9347 21.0909 95.679 19.9006 95.679 18.5312C95.679 17.1847 95.9347 16.0028 96.446 14.9858C96.9631 13.9631 97.6847 13.1676 98.6108 12.5994C99.5369 12.0256 100.625 11.7386 101.875 11.7386C102.682 11.7386 103.443 11.8693 104.159 12.1307C104.881 12.3864 105.517 12.7841 106.068 13.3239C106.625 13.8636 107.063 14.5511 107.381 15.3864C107.699 16.2159 107.858 17.2045 107.858 18.3523V19.2983H97.1278V17.2188H104.901C104.895 16.6278 104.767 16.1023 104.517 15.642C104.267 15.1761 103.918 14.8097 103.469 14.5426C103.026 14.2756 102.509 14.142 101.918 14.142C101.287 14.142 100.733 14.2955 100.256 14.6023C99.7784 14.9034 99.4063 15.3011 99.1392 15.7955C98.8778 16.2841 98.7443 16.821 98.7386 17.4062V19.2216C98.7386 19.983 98.8778 20.6364 99.1562 21.1818C99.4347 21.7216 99.8239 22.1364 100.324 22.4261C100.824 22.7102 101.409 22.8523 102.08 22.8523C102.528 22.8523 102.935 22.7898 103.298 22.6648C103.662 22.5341 103.977 22.3438 104.244 22.0938C104.511 21.8438 104.713 21.5341 104.849 21.1648L107.73 21.4886C107.548 22.25 107.202 22.9148 106.69 23.483C106.185 24.0455 105.537 24.483 104.747 24.7955C103.957 25.1023 103.054 25.2557 102.037 25.2557ZM113.553 17.3295V25H110.468V11.9091H113.417V14.1335H113.57C113.871 13.4006 114.352 12.8182 115.011 12.3864C115.675 11.9545 116.496 11.7386 117.474 11.7386C118.377 11.7386 119.164 11.9318 119.835 12.3182C120.511 12.7045 121.033 13.2642 121.403 13.9972C121.778 14.7301 121.962 15.6193 121.957 16.6648V25H118.871V17.142C118.871 16.267 118.644 15.5824 118.19 15.0881C117.741 14.5937 117.119 14.3466 116.323 14.3466C115.783 14.3466 115.303 14.4659 114.883 14.7045C114.468 14.9375 114.141 15.2756 113.903 15.7188C113.67 16.1619 113.553 16.6989 113.553 17.3295ZM133.437 19.4943V11.9091H136.522V25H133.531V22.6733H133.394C133.099 23.4062 132.613 24.0057 131.937 24.4716C131.266 24.9375 130.44 25.1705 129.457 25.1705C128.599 25.1705 127.84 24.9801 127.181 24.5994C126.528 24.2131 126.016 23.6534 125.647 22.9205C125.278 22.1818 125.093 21.2898 125.093 20.2443V11.9091H128.178V19.767C128.178 20.5966 128.406 21.2557 128.86 21.7443C129.315 22.233 129.911 22.4773 130.65 22.4773C131.104 22.4773 131.545 22.3665 131.971 22.1449C132.397 21.9233 132.746 21.5938 133.019 21.1562C133.298 20.7131 133.437 20.1591 133.437 19.4943ZM145.49 25.2557C144.178 25.2557 143.044 24.983 142.089 24.4375C141.141 23.8864 140.411 23.108 139.899 22.1023C139.388 21.0909 139.132 19.9006 139.132 18.5312C139.132 17.1847 139.388 16.0028 139.899 14.9858C140.416 13.9631 141.138 13.1676 142.064 12.5994C142.99 12.0256 144.078 11.7386 145.328 11.7386C146.135 11.7386 146.896 11.8693 147.612 12.1307C148.334 12.3864 148.97 12.7841 149.521 13.3239C150.078 13.8636 150.516 14.5511 150.834 15.3864C151.152 16.2159 151.311 17.2045 151.311 18.3523V19.2983H140.581V17.2188H148.354C148.348 16.6278 148.22 16.1023 147.97 15.642C147.72 15.1761 147.371 14.8097 146.922 14.5426C146.479 14.2756 145.962 14.142 145.371 14.142C144.74 14.142 144.186 14.2955 143.709 14.6023C143.232 14.9034 142.859 15.3011 142.592 15.7955C142.331 16.2841 142.197 16.821 142.192 17.4062V19.2216C142.192 19.983 142.331 20.6364 142.609 21.1818C142.888 21.7216 143.277 22.1364 143.777 22.4261C144.277 22.7102 144.862 22.8523 145.533 22.8523C145.982 22.8523 146.388 22.7898 146.751 22.6648C147.115 22.5341 147.43 22.3438 147.697 22.0938C147.964 21.8438 148.166 21.5341 148.303 21.1648L151.183 21.4886C151.001 22.25 150.655 22.9148 150.143 23.483C149.638 24.0455 148.99 24.483 148.2 24.7955C147.411 25.1023 146.507 25.2557 145.49 25.2557ZM165.925 25H160.011V7.54545H166.045C167.778 7.54545 169.266 7.89489 170.511 8.59375C171.761 9.28693 172.721 10.2841 173.391 11.5852C174.062 12.8864 174.397 14.4432 174.397 16.2557C174.397 18.0739 174.059 19.6364 173.383 20.9432C172.712 22.25 171.744 23.2528 170.477 23.9517C169.215 24.6506 167.698 25 165.925 25ZM163.173 22.2642H165.772C166.988 22.2642 168.002 22.0426 168.815 21.5994C169.627 21.1506 170.238 20.483 170.647 19.5966C171.056 18.7045 171.261 17.5909 171.261 16.2557C171.261 14.9205 171.056 13.8125 170.647 12.9318C170.238 12.0455 169.633 11.3835 168.832 10.946C168.036 10.5028 167.048 10.2812 165.866 10.2812H163.173V22.2642ZM177.265 25V11.9091H180.35V25H177.265ZM178.816 10.0511C178.327 10.0511 177.907 9.8892 177.555 9.56534C177.202 9.23579 177.026 8.84091 177.026 8.38068C177.026 7.91477 177.202 7.51989 177.555 7.19602C177.907 6.86648 178.327 6.7017 178.816 6.7017C179.31 6.7017 179.731 6.86648 180.077 7.19602C180.43 7.51989 180.606 7.91477 180.606 8.38068C180.606 8.84091 180.43 9.23579 180.077 9.56534C179.731 9.8892 179.31 10.0511 178.816 10.0511ZM193.869 15.3693L191.057 15.6761C190.977 15.392 190.838 15.125 190.639 14.875C190.446 14.625 190.185 14.4233 189.855 14.2699C189.526 14.1165 189.122 14.0398 188.645 14.0398C188.003 14.0398 187.463 14.179 187.026 14.4574C186.594 14.7358 186.381 15.0966 186.386 15.5398C186.381 15.9205 186.52 16.2301 186.804 16.4688C187.094 16.7074 187.571 16.9034 188.236 17.0568L190.469 17.5341C191.707 17.8011 192.628 18.2244 193.23 18.804C193.838 19.3835 194.145 20.142 194.151 21.0795C194.145 21.9034 193.903 22.6307 193.426 23.2614C192.955 23.8864 192.298 24.375 191.457 24.7273C190.616 25.0795 189.651 25.2557 188.56 25.2557C186.957 25.2557 185.668 24.9205 184.69 24.25C183.713 23.5739 183.131 22.6335 182.943 21.429L185.952 21.1392C186.088 21.7301 186.378 22.1761 186.821 22.4773C187.264 22.7784 187.841 22.929 188.551 22.929C189.284 22.929 189.872 22.7784 190.315 22.4773C190.764 22.1761 190.989 21.804 190.989 21.3608C190.989 20.9858 190.844 20.6761 190.554 20.4318C190.27 20.1875 189.827 20 189.224 19.8693L186.991 19.4006C185.736 19.1392 184.807 18.6989 184.205 18.0795C183.602 17.4545 183.304 16.6648 183.31 15.7102C183.304 14.9034 183.523 14.2045 183.966 13.6136C184.415 13.017 185.037 12.5568 185.832 12.233C186.634 11.9034 187.557 11.7386 188.602 11.7386C190.136 11.7386 191.344 12.0653 192.224 12.7188C193.111 13.3722 193.659 14.2557 193.869 15.3693ZM203.232 11.9091V14.2955H195.706V11.9091H203.232ZM197.564 8.77273H200.649V21.0625C200.649 21.4773 200.712 21.7955 200.837 22.017C200.967 22.233 201.138 22.3807 201.348 22.4602C201.558 22.5398 201.791 22.5795 202.047 22.5795C202.24 22.5795 202.416 22.5653 202.575 22.5369C202.74 22.5085 202.865 22.483 202.95 22.4602L203.47 24.8722C203.305 24.929 203.07 24.9915 202.763 25.0597C202.462 25.1278 202.092 25.1676 201.655 25.179C200.882 25.2017 200.186 25.0852 199.567 24.8295C198.947 24.5682 198.456 24.1648 198.092 23.6193C197.734 23.0739 197.558 22.392 197.564 21.5739V8.77273ZM205.812 25V11.9091H208.803V14.0909H208.94C209.178 13.3352 209.587 12.7528 210.167 12.3438C210.752 11.929 211.42 11.7216 212.17 11.7216C212.34 11.7216 212.531 11.7301 212.741 11.7472C212.957 11.7585 213.136 11.7784 213.278 11.8068V14.6449C213.147 14.5994 212.94 14.5597 212.656 14.5256C212.377 14.4858 212.107 14.4659 211.846 14.4659C211.283 14.4659 210.778 14.5881 210.329 14.8324C209.886 15.071 209.536 15.4034 209.281 15.8295C209.025 16.2557 208.897 16.7472 208.897 17.304V25H205.812ZM215.327 25V11.9091H218.413V25H215.327ZM216.879 10.0511C216.39 10.0511 215.969 9.8892 215.617 9.56534C215.265 9.23579 215.089 8.84091 215.089 8.38068C215.089 7.91477 215.265 7.51989 215.617 7.19602C215.969 6.86648 216.39 6.7017 216.879 6.7017C217.373 6.7017 217.793 6.86648 218.14 7.19602C218.492 7.51989 218.668 7.91477 218.668 8.38068C218.668 8.84091 218.492 9.23579 218.14 9.56534C217.793 9.8892 217.373 10.0511 216.879 10.0511ZM221.722 25V7.54545H224.807V14.0739H224.935C225.094 13.7557 225.318 13.4176 225.608 13.0597C225.898 12.696 226.29 12.3864 226.784 12.1307C227.278 11.8693 227.909 11.7386 228.676 11.7386C229.688 11.7386 230.599 11.9972 231.412 12.5142C232.23 13.0256 232.878 13.7841 233.355 14.7898C233.838 15.7898 234.08 17.017 234.08 18.4716C234.08 19.9091 233.844 21.1307 233.372 22.1364C232.901 23.142 232.259 23.9091 231.446 24.4375C230.634 24.9659 229.713 25.2301 228.685 25.2301C227.935 25.2301 227.313 25.1051 226.818 24.8551C226.324 24.6051 225.926 24.304 225.625 23.9517C225.33 23.5937 225.099 23.2557 224.935 22.9375H224.756V25H221.722ZM224.747 18.4545C224.747 19.3011 224.866 20.0426 225.105 20.679C225.349 21.3153 225.699 21.8125 226.153 22.1705C226.614 22.5227 227.17 22.6989 227.824 22.6989C228.506 22.6989 229.077 22.517 229.537 22.1534C229.997 21.7841 230.344 21.2812 230.577 20.6449C230.815 20.0028 230.935 19.2727 230.935 18.4545C230.935 17.642 230.818 16.9205 230.585 16.2898C230.352 15.6591 230.006 15.1648 229.545 14.8068C229.085 14.4489 228.511 14.2699 227.824 14.2699C227.165 14.2699 226.605 14.4432 226.145 14.7898C225.685 15.1364 225.335 15.6222 225.097 16.2472C224.864 16.8722 224.747 17.608 224.747 18.4545ZM245.046 19.4943V11.9091H248.131V25H245.14V22.6733H245.004C244.708 23.4062 244.222 24.0057 243.546 24.4716C242.876 24.9375 242.049 25.1705 241.066 25.1705C240.208 25.1705 239.45 24.9801 238.79 24.5994C238.137 24.2131 237.626 23.6534 237.256 22.9205C236.887 22.1818 236.702 21.2898 236.702 20.2443V11.9091H239.788V19.767C239.788 20.5966 240.015 21.2557 240.469 21.7443C240.924 22.233 241.521 22.4773 242.259 22.4773C242.714 22.4773 243.154 22.3665 243.58 22.1449C244.006 21.9233 244.356 21.5938 244.629 21.1562C244.907 20.7131 245.046 20.1591 245.046 19.4943ZM257.841 11.9091V14.2955H250.315V11.9091H257.841ZM252.173 8.77273H255.259V21.0625C255.259 21.4773 255.321 21.7955 255.446 22.017C255.577 22.233 255.747 22.3807 255.957 22.4602C256.168 22.5398 256.401 22.5795 256.656 22.5795C256.849 22.5795 257.026 22.5653 257.185 22.5369C257.349 22.5085 257.474 22.483 257.56 22.4602L258.08 24.8722C257.915 24.929 257.679 24.9915 257.372 25.0597C257.071 25.1278 256.702 25.1676 256.264 25.179C255.491 25.2017 254.795 25.0852 254.176 24.8295C253.557 24.5682 253.065 24.1648 252.702 23.6193C252.344 23.0739 252.168 22.392 252.173 21.5739V8.77273ZM260.421 25V11.9091H263.506V25H260.421ZM261.972 10.0511C261.484 10.0511 261.063 9.8892 260.711 9.56534C260.359 9.23579 260.183 8.84091 260.183 8.38068C260.183 7.91477 260.359 7.51989 260.711 7.19602C261.063 6.86648 261.484 6.7017 261.972 6.7017C262.467 6.7017 262.887 6.86648 263.234 7.19602C263.586 7.51989 263.762 7.91477 263.762 8.38068C263.762 8.84091 263.586 9.23579 263.234 9.56534C262.887 9.8892 262.467 10.0511 261.972 10.0511ZM272.389 25.2557C271.111 25.2557 270.003 24.9744 269.065 24.4119C268.128 23.8494 267.401 23.0625 266.884 22.0511C266.372 21.0398 266.116 19.858 266.116 18.5057C266.116 17.1534 266.372 15.9687 266.884 14.9517C267.401 13.9347 268.128 13.1449 269.065 12.5824C270.003 12.0199 271.111 11.7386 272.389 11.7386C273.668 11.7386 274.776 12.0199 275.713 12.5824C276.651 13.1449 277.375 13.9347 277.886 14.9517C278.403 15.9687 278.662 17.1534 278.662 18.5057C278.662 19.858 278.403 21.0398 277.886 22.0511C277.375 23.0625 276.651 23.8494 275.713 24.4119C274.776 24.9744 273.668 25.2557 272.389 25.2557ZM272.406 22.7841C273.099 22.7841 273.679 22.5937 274.145 22.2131C274.611 21.8267 274.957 21.3097 275.185 20.6619C275.418 20.0142 275.534 19.2926 275.534 18.4972C275.534 17.696 275.418 16.9716 275.185 16.3239C274.957 15.6705 274.611 15.1506 274.145 14.7642C273.679 14.3778 273.099 14.1847 272.406 14.1847C271.696 14.1847 271.105 14.3778 270.634 14.7642C270.168 15.1506 269.818 15.6705 269.585 16.3239C269.358 16.9716 269.244 17.696 269.244 18.4972C269.244 19.2926 269.358 20.0142 269.585 20.6619C269.818 21.3097 270.168 21.8267 270.634 22.2131C271.105 22.5937 271.696 22.7841 272.406 22.7841ZM284.366 17.3295V25H281.281V11.9091H284.229V14.1335H284.383C284.684 13.4006 285.164 12.8182 285.823 12.3864C286.488 11.9545 287.309 11.7386 288.286 11.7386C289.19 11.7386 289.977 11.9318 290.647 12.3182C291.323 12.7045 291.846 13.2642 292.215 13.9972C292.59 14.7301 292.775 15.6193 292.769 16.6648V25H289.684V17.142C289.684 16.267 289.457 15.5824 289.002 15.0881C288.553 14.5937 287.931 14.3466 287.136 14.3466C286.596 14.3466 286.116 14.4659 285.695 14.7045C285.281 14.9375 284.954 15.2756 284.715 15.7188C284.482 16.1619 284.366 16.6989 284.366 17.3295Z" fill="#202020"/>
<defs>
<filter id="filter0_d_225_3457" x="0" y="0" width="323" height="319" filterUnits="userSpaceOnUse" color-interpolation-filters="sRGB">
<feFlood flood-opacity="0" result="BackgroundImageFix"/>
<feColorMatrix in="SourceAlpha" type="matrix" values="0 0 0 0 0 0 0 0 0 0 0 0 0 0 0 0 0 0 127 0" result="hardAlpha"/>
<feOffset dy="1"/>
<feGaussianBlur stdDeviation="1.5"/>
<feColorMatrix type="matrix" values="0 0 0 0 0 0 0 0 0 0 0 0 0 0 0 0 0 0 0.08 0"/>
<feBlend mode="normal" in2="BackgroundImageFix" result="effect1_dropShadow_225_3457"/>
<feBlend mode="normal" in="SourceGraphic" in2="effect1_dropShadow_225_3457" result="shape"/>
</filter>
<clipPath id="clip0_225_3457">
<rect width="112" height="14" fill="white" transform="translate(20 252)"/>
</clipPath>
<clipPath id="clip1_225_3457">
<rect width="101" height="14" fill="white" transform="translate(124 253)"/>
</clipPath>
<clipPath id="clip2_225_3457">
<rect width="71.6921" height="13.5051" fill="white" transform="translate(237.079 250.652)"/>
</clipPath>
<clipPath id="clip3_225_3457">
<rect width="22.5592" height="13.5051" fill="white" transform="translate(135.228 94.6914)"/>
</clipPath>
<clipPath id="clip4_225_3457">
<rect width="24.1706" height="13.5051" fill="white" transform="translate(200.469 129.646)"/>
</clipPath>
<clipPath id="clip5_225_3457">
<rect width="24.1706" height="13.5051" fill="white" transform="translate(125.539 163.012)"/>
</clipPath>
</defs>
</svg>
