<svg width="16" height="16" viewBox="0 0 16 16" fill="none" xmlns="http://www.w3.org/2000/svg">
<path fill-rule="evenodd" clip-rule="evenodd" d="M11.0999 5.11391L8.43826 2.83272C8.31399 2.72378 8.15711 2.66805 7.9994 2.66797C7.89149 2.66791 7.7832 2.69391 7.6847 2.74675C7.64081 2.77023 7.59911 2.79892 7.56055 2.83272L4.89886 5.11391C4.6193 5.35351 4.5869 5.77437 4.8265 6.05394C5.0661 6.3335 5.48696 6.3659 5.76653 6.1263L7.33269 4.78402V9.94712C7.33269 10.3153 7.63117 10.6138 7.99936 10.6138C8.36755 10.6138 8.66602 10.3153 8.66602 9.94712L8.66603 4.78395L10.2323 6.1263C10.5118 6.3659 10.9327 6.3335 11.1723 6.05394C11.4119 5.77437 11.3795 5.35351 11.0999 5.11391ZM3.99935 9.33464C3.99935 8.96645 4.29783 8.66797 4.66602 8.66797H5.66602C6.03421 8.66797 6.33268 8.36949 6.33268 8.0013C6.33268 7.63311 6.03421 7.33464 5.66602 7.33464H4.66602C3.56145 7.33464 2.66602 8.23007 2.66602 9.33464V11.3346C2.66602 12.4392 3.56145 13.3346 4.66602 13.3346H11.3327C12.4373 13.3346 13.3327 12.4392 13.3327 11.3346V9.33464C13.3327 8.23007 12.4373 7.33464 11.3327 7.33464H10.3327C9.96449 7.33464 9.66602 7.63311 9.66602 8.0013C9.66602 8.36949 9.96449 8.66797 10.3327 8.66797H11.3327C11.7009 8.66797 11.9993 8.96645 11.9993 9.33464V11.3346C11.9993 11.7028 11.7009 12.0013 11.3327 12.0013H4.66602C4.29783 12.0013 3.99935 11.7028 3.99935 11.3346V9.33464Z" fill="#0F3659"/>
</svg>
