<svg width="31" height="32" viewBox="0 0 31 32" fill="none" xmlns="http://www.w3.org/2000/svg">
<path fill-rule="evenodd" clip-rule="evenodd" d="M20.9488 22.1999L25.338 16.8765C25.5477 16.628 25.6549 16.3142 25.655 15.9988C25.6552 15.783 25.6051 15.5664 25.5035 15.3694C25.4583 15.2816 25.4031 15.1982 25.338 15.1211L20.9488 9.79772C20.4877 9.2386 19.678 9.1738 19.14 9.653C18.6021 10.1322 18.5398 10.9739 19.0008 11.5331L21.5835 14.6654L11.6491 14.6654C10.9407 14.6654 10.3664 15.2623 10.3664 15.9987C10.3664 16.7351 10.9407 17.3321 11.6491 17.3321L21.5836 17.3321L19.0008 20.4646C18.5398 21.0237 18.6021 21.8654 19.14 22.3446C19.678 22.8238 20.4877 22.759 20.9488 22.1999ZM12.8276 7.9987C13.536 7.9987 14.1103 8.59565 14.1103 9.33203L14.1103 11.332C14.1103 12.0684 14.6846 12.6654 15.3931 12.6654C16.1015 12.6654 16.6758 12.0684 16.6758 11.332L16.6758 9.33203C16.6758 7.12289 14.9529 5.33203 12.8276 5.33203L8.97935 5.33203C6.85402 5.33203 5.13111 7.12289 5.13111 9.33203L5.13111 22.6654C5.13111 24.8745 6.85402 26.6654 8.97935 26.6654L12.8276 26.6654C14.9529 26.6654 16.6758 24.8745 16.6758 22.6654L16.6758 20.6654C16.6758 19.929 16.1015 19.332 15.3931 19.332C14.6846 19.332 14.1103 19.929 14.1103 20.6654L14.1103 22.6654C14.1103 23.4017 13.536 23.9987 12.8276 23.9987L8.97935 23.9987C8.27091 23.9987 7.6966 23.4017 7.6966 22.6654L7.6966 9.33203C7.6966 8.59565 8.27091 7.9987 8.97935 7.9987L12.8276 7.9987Z" fill="#737791"/>
</svg>
